<?xml version="1.0" encoding="UTF-8"?>
<svg width="15px" height="15px" viewBox="0 0 15 15" version="1.1" xmlns="http://www.w3.org/2000/svg" xmlns:xlink="http://www.w3.org/1999/xlink">
    <!-- Generator: Sketch 56.2 (81672) - https://sketch.com -->
    <title>Icon/Break</title>
    <desc>Created with Sketch.</desc>
    <g id="Page-1" stroke="none" stroke-width="1" fill="none" fill-rule="evenodd">
        <g id="1.00_网络设备-店内网络" transform="translate(-521.000000, -440.000000)" fill="#A1A7B3">
            <g id="Group-10" transform="translate(304.000000, 327.000000)">
                <g id="Group-3" transform="translate(40.000000, 72.000000)">
                    <g id="Icon/Break" transform="translate(177.000000, 41.000000)">
                        <path d="M7.5,5.7133184 L12.8004887,0.412829671 C13.3267591,-0.113440728 14.1533479,-0.140104881 14.6467264,0.353273618 C15.1401049,0.846652117 15.1134407,1.67324087 14.5871703,2.19951127 L9.2866816,7.5 L14.5871703,12.8004887 C15.1134407,13.3267591 15.1401049,14.1533479 14.6467264,14.6467264 C14.1533479,15.1401049 13.3267591,15.1134407 12.8004887,14.5871703 L7.5,9.2866816 L2.19951127,14.5871703 C1.67324087,15.1134407 0.846652117,15.1401049 0.353273618,14.6467264 C-0.140104881,14.1533479 -0.113440728,13.3267591 0.412829671,12.8004887 L5.7133184,7.5 L0.412829671,2.19951127 C-0.113440728,1.67324087 -0.140104881,0.846652117 0.353273618,0.353273618 C0.846652117,-0.140104881 1.67324087,-0.113440728 2.19951127,0.412829671 L7.5,5.7133184 Z" id="Combined-Shape"></path>
                    </g>
                </g>
            </g>
        </g>
    </g>
</svg>