<?xml version="1.0" encoding="UTF-8"?>
<svg width="16px" height="16px" viewBox="0 0 16 16" version="1.1" xmlns="http://www.w3.org/2000/svg" xmlns:xlink="http://www.w3.org/1999/xlink">
    <!-- Generator: Sketch 53.2 (72643) - https://sketchapp.com -->
    <title>Icon/Delete</title>
    <desc>Created with Sketch.</desc>
    <g id="Icon/Delete" stroke="none" stroke-width="1" fill="none" fill-rule="evenodd">
        <path d="M8,0 C3.58125,0 0,3.58125 0,8 C0,12.41875 3.58125,16 8,16 C12.41875,16 16,12.41875 16,8 C16,3.58125 12.41875,0 8,0 Z M12.8609375,12.8609375 C12.2296875,13.4921875 11.49375,13.9890625 10.675,14.334375 C9.828125,14.69375 8.928125,14.875 8,14.875 C7.071875,14.875 6.171875,14.69375 5.325,14.3359375 C4.50625,13.9890625 3.771875,13.49375 3.1390625,12.8625 C2.5078125,12.23125 2.0109375,11.4953125 1.665625,10.6765625 C1.30625,9.828125 1.125,8.928125 1.125,8 C1.125,7.071875 1.30625,6.171875 1.6640625,5.325 C2.0109375,4.50625 2.50625,3.771875 3.1375,3.1390625 C3.76875,2.5078125 4.5046875,2.0109375 5.3234375,1.665625 C6.171875,1.30625 7.071875,1.125 8,1.125 C8.928125,1.125 9.828125,1.30625 10.675,1.6640625 C11.49375,2.0109375 12.228125,2.50625 12.8609375,3.1375 C13.4921875,3.76875 13.9890625,4.5046875 14.334375,5.3234375 C14.69375,6.171875 14.875,7.071875 14.875,8 C14.875,8.928125 14.69375,9.828125 14.3359375,10.675 C13.9890625,11.49375 13.49375,12.2296875 12.8609375,12.8609375 Z M12.4453125,8.5625 L3.5546875,8.5625 C3.24375,8.5625 2.9921875,8.3109375 2.9921875,8 L2.9921875,8 C2.9921875,7.6890625 3.24375,7.4375 3.5546875,7.4375 L12.4453125,7.4375 C12.75625,7.4375 13.0078125,7.6890625 13.0078125,8 L13.0078125,8 C13.0078125,8.3109375 12.75625,8.5625 12.4453125,8.5625 Z" id="Shape" fill="#777E8C"></path>
    </g>
</svg>