<?xml version="1.0" encoding="UTF-8"?>
<svg width="32px" height="32px" viewBox="0 0 32 32" version="1.1" xmlns="http://www.w3.org/2000/svg" xmlns:xlink="http://www.w3.org/1999/xlink">
    <!-- Generator: Sketch 53.2 (72643) - https://sketchapp.com -->
    <title>暂停-禁用</title>
    <desc>Created with Sketch.</desc>
    <g id="暂停-禁用" stroke="none" stroke-width="1" fill="none" fill-rule="evenodd" fill-opacity="0.3">
        <path d="M16,30.5 C24.0081289,30.5 30.5,24.0081289 30.5,16 C30.5,7.99187113 24.0081289,1.5 16,1.5 C7.99187113,1.5 1.5,7.99187113 1.5,16 C1.5,24.0081289 7.99187113,30.5 16,30.5 Z M16,32 C7.163444,32 0,24.836556 0,16 C0,7.163444 7.163444,0 16,0 C24.836556,0 32,7.163444 32,16 C32,24.836556 24.836556,32 16,32 Z M13,10 C13.5522847,10 14,10.4477153 14,11 L14,21 C14,21.5522847 13.5522847,22 13,22 C12.4477153,22 12,21.5522847 12,21 L12,11 C12,10.4477153 12.4477153,10 13,10 Z M19,10 C19.5522847,10 20,10.4477153 20,11 L20,21 C20,21.5522847 19.5522847,22 19,22 C18.4477153,22 18,21.5522847 18,21 L18,11 C18,10.4477153 18.4477153,10 19,10 Z" id="合并形状" fill="#FFFFFF" fill-rule="nonzero"></path>
    </g>
</svg>