<?xml version="1.0" encoding="UTF-8"?>
<svg width="24px" height="24px" viewBox="0 0 24 24" version="1.1" xmlns="http://www.w3.org/2000/svg" xmlns:xlink="http://www.w3.org/1999/xlink">
    <!-- Generator: Sketch 53.2 (72643) - https://sketchapp.com -->
    <title>icon/日期</title>
    <desc>Created with Sketch.</desc>
    <g id="icon/日期" stroke="none" stroke-width="1" fill="none" fill-rule="evenodd">
        <path d="M16.75,4.5 L7.25,4.5 L7.25,5 C7.25,5.41421356 6.91421356,5.75 6.5,5.75 C6.08578644,5.75 5.75,5.41421356 5.75,5 L5.75,4.5 L1.5,4.5 L1.5,20.5 L22.5,20.5 L22.5,4.5 L18.25,4.5 L18.25,4.99645996 C18.25,5.41067352 17.9142136,5.74645996 17.5,5.74645996 C17.0857864,5.74645996 16.75,5.41067352 16.75,4.99645996 L16.75,4.5 Z M18.25,3 L23,3 C23.5522847,3 24,3.44771525 24,4 L24,21 C24,21.5522847 23.5522847,22 23,22 L1,22 C0.44771525,22 6.76353751e-17,21.5522847 0,21 L0,4 C-6.76353751e-17,3.44771525 0.44771525,3 1,3 L5.75,3 L5.75,2.5 C5.75,2.08578644 6.08578644,1.75 6.5,1.75 C6.91421356,1.75 7.25,2.08578644 7.25,2.5 L7.25,3 L16.75,3 L16.75,2.5 C16.75,2.08578644 17.0857864,1.75 17.5,1.75 C17.9142136,1.75 18.25,2.08578644 18.25,2.5 L18.25,3 Z" id="合并形状" fill="#FFFFFF" fill-rule="nonzero"></path>
    </g>
</svg>