<?xml version="1.0" encoding="UTF-8"?>
<svg width="24px" height="24px" viewBox="0 0 24 24" version="1.1" xmlns="http://www.w3.org/2000/svg" xmlns:xlink="http://www.w3.org/1999/xlink">
    <!-- Generator: Sketch 53.2 (72643) - https://sketchapp.com -->
    <title>icon/相机</title>
    <desc>Created with Sketch.</desc>
    <g id="icon/相机" stroke="none" stroke-width="1" fill="none" fill-rule="evenodd">
        <path d="M12,17.75 C9.37664744,17.75 7.25,15.6233526 7.25,13 C7.25,10.3766474 9.37664744,8.25 12,8.25 C14.6233526,8.25 16.75,10.3766474 16.75,13 C16.75,15.6233526 14.6233526,17.75 12,17.75 Z M12,16.25 C13.7949254,16.25 15.25,14.7949254 15.25,13 C15.25,11.2050746 13.7949254,9.75 12,9.75 C10.2050746,9.75 8.75,11.2050746 8.75,13 C8.75,14.7949254 10.2050746,16.25 12,16.25 Z M1.5,7.16666667 L1.5,20 L22.5,20 L22.5,7.16666667 L19.5877671,7.16666667 C18.8053009,7.16666667 18.0679673,6.80031657 17.5953427,6.17671465 L15.9456221,4 L8.072307,4 L6.4007276,6.18548078 C5.92771284,6.80391666 5.19356971,7.16666667 4.41497745,7.16666667 L1.5,7.16666667 Z M1,5.66666667 L4.41497745,5.66666667 C4.72641435,5.66666667 5.0200716,5.52156667 5.20927751,5.27419231 L7.03095021,2.89247435 C7.22015611,2.6451 7.51381337,2.5 7.82525027,2.5 L16.1940511,2.5 C16.5070376,2.5 16.801971,2.64654004 16.9910209,2.89598081 L18.7907973,5.27068586 C18.9798472,5.52012663 19.2747806,5.66666667 19.5877671,5.66666667 L23,5.66666667 C23.5522847,5.66666667 24,6.11438192 24,6.66666667 L24,20.5 C24,21.0522847 23.5522847,21.5 23,21.5 L1,21.5 C0.44771525,21.5 2.53388121e-16,21.0522847 -1.77635684e-15,20.5 L-1.33226763e-15,6.66666667 C-9.09375608e-16,6.11438192 0.44771525,5.66666667 1,5.66666667 Z M18,9.5 C18,8.94771525 18.4477153,8.5 19,8.5 C19.5522847,8.5 20,8.94771525 20,9.5 C20,10.0522847 19.5522847,10.5 19,10.5 C18.4477153,10.5 18,10.0522847 18,9.5 Z" id="合并形状" fill="#FFFFFF" fill-rule="nonzero"></path>
    </g>
</svg>