<?xml version="1.0" encoding="UTF-8"?>
<svg width="82px" height="82px" viewBox="0 0 82 82" version="1.1" xmlns="http://www.w3.org/2000/svg" xmlns:xlink="http://www.w3.org/1999/xlink">
    <!-- Generator: Sketch 58 (84663) - https://sketch.com -->
    <title>icon/convenience</title>
    <desc>Created with Sketch.</desc>
    <defs>
        <rect id="path-1" x="0.272727273" y="0.454545455" width="80" height="80" rx="8"></rect>
        <circle id="path-3" cx="50.2727273" cy="50.4545455" r="50"></circle>
        <path d="M73.5454545,50.4545455 C75.7545935,50.4545455 77.5454545,52.2454065 77.5454545,54.4545455 L77.5454545,69.1818182 C77.5454545,71.3909572 75.7545935,73.1818182 73.5454545,73.1818182 L67.9090909,73.1818182 C65.6999519,73.1818182 63.9090909,71.3909572 63.9090909,69.1818182 L63.9090909,54.4545455 C63.9090909,52.2454065 65.6999519,50.4545455 67.9090909,50.4545455 L73.5454545,50.4545455 Z M69,30 C71.209139,30 73,31.790861 73,34 L73,48.1818182 L65.6363636,48.1818182 C63.4272246,48.1818182 61.6363636,49.9726792 61.6363636,52.1818182 L61.6363636,57.2727273 L28.0454545,57.2727273 C27.7999947,57.2727273 27.5958462,57.4496024 27.5535102,57.6828516 L27.5454545,57.7727273 L27.5454545,59.0454545 C27.5454545,59.2909144 27.7223297,59.4950629 27.9555789,59.5373989 L28.0454545,59.5454545 L61.6363636,59.5454545 L61.6363636,64.0909091 L54.8181818,64.0909091 L54.8181818,68.6363636 L58.2272727,68.6363636 C58.854869,68.6363636 59.3636364,69.145131 59.3636364,69.7727273 C59.3636364,70.4003236 58.854869,70.9090909 58.2272727,70.9090909 L37.7727273,70.9090909 C37.145131,70.9090909 36.6363636,70.4003236 36.6363636,69.7727273 C36.6363636,69.145131 37.145131,68.6363636 37.7727273,68.6363636 L41.1818182,68.6363636 L41.1818182,64.0909091 L27,64.0909091 C24.790861,64.0909091 23,62.3000481 23,60.0909091 L23,34 C23,31.790861 24.790861,30 27,30 L69,30 Z M70.7272727,68.6363636 C70.0996764,68.6363636 69.5909091,69.145131 69.5909091,69.7727273 C69.5909091,70.4003236 70.0996764,70.9090909 70.7272727,70.9090909 C71.354869,70.9090909 71.8636364,70.4003236 71.8636364,69.7727273 C71.8636364,69.145131 71.354869,68.6363636 70.7272727,68.6363636 Z" id="path-5"></path>
    </defs>
    <g id="icon/convenience" stroke="none" stroke-width="1" fill="none" fill-rule="evenodd">
        <g id="编组-2">
            <g transform="translate(0.727273, 0.545455)">
                <mask id="mask-2" fill="white">
                    <use xlink:href="#path-1"></use>
                </mask>
                <g id="蒙版"></g>
                <g mask="url(#mask-2)">
                    <mask id="mask-4" fill="white">
                        <use xlink:href="#path-3"></use>
                    </mask>
                    <use id="椭圆形" fill="#FF6000" xlink:href="#path-3"></use>
                    <mask id="mask-6" fill="white">
                        <use xlink:href="#path-5"></use>
                    </mask>
                    <use id="形状结合" fill="#FFFFFF" xlink:href="#path-5"></use>
                </g>
            </g>
        </g>
    </g>
</svg>