<?xml version="1.0" encoding="UTF-8"?>
<svg width="12px" height="12px" viewBox="0 0 12 12" version="1.1" xmlns="http://www.w3.org/2000/svg" xmlns:xlink="http://www.w3.org/1999/xlink">
    <!-- Generator: Sketch 56.2 (81672) - https://sketch.com -->
    <title>Icon/Home/Upload</title>
    <desc>Created with Sketch.</desc>
    <g id="Icon/Home/Upload" stroke="none" stroke-width="1" fill="none" fill-rule="evenodd">
        <path d="M5.50000086,2.8307247 L2.8762937,5.8292523 C2.69445298,6.03707062 2.37857221,6.05812937 2.17075425,5.87628835 C1.96293629,5.69444732 1.94187758,5.37856601 2.12371829,5.1707477 L5.6237123,1.1707477 C5.8229176,0.943084101 6.1770824,0.943084101 6.3762877,1.1707477 L9.87628171,5.1707477 C10.0581224,5.37856601 10.0370637,5.69444732 9.82924575,5.87628835 C9.62142779,6.05812937 9.30554702,6.03707062 9.1237063,5.8292523 L6.50000086,2.83072666 L6.50000086,10.5 C6.50000086,10.7761424 6.2761419,11 6.00000086,11 C5.7238581,11 5.50000086,10.7761424 5.50000086,10.5 L5.50000086,2.8307247 Z" id="Combined-Shape" fill="#6DD13B" fill-rule="nonzero" transform="translate(6.000000, 6.000000) scale(1, -1) translate(-6.000000, -6.000000) "></path>
    </g>
</svg>