<?xml version="1.0" encoding="UTF-8"?>
<svg width="24px" height="24px" viewBox="0 0 24 24" version="1.1" xmlns="http://www.w3.org/2000/svg" xmlns:xlink="http://www.w3.org/1999/xlink">
    <!-- Generator: Sketch 53.2 (72643) - https://sketchapp.com -->
    <title>icon/全屏</title>
    <desc>Created with Sketch.</desc>
    <g id="icon/全屏" stroke="none" stroke-width="1" fill="none" fill-rule="evenodd">
        <path d="M20.25,19.1893398 L20.25,16 C20.25,15.5857864 20.5857864,15.25 21,15.25 C21.4142136,15.25 21.75,15.5857864 21.75,16 L21.75,21 C21.75,21.4142136 21.4142136,21.75 21,21.75 L16,21.75 C15.5857864,21.75 15.25,21.4142136 15.25,21 C15.25,20.5857864 15.5857864,20.25 16,20.25 L19.1893398,20.25 L15.4696699,16.5303301 C15.1767767,16.2374369 15.1767767,15.7625631 15.4696699,15.4696699 C15.7625631,15.1767767 16.2374369,15.1767767 16.5303301,15.4696699 L20.25,19.1893398 Z M19.1893398,3.75 L16,3.75 C15.5857864,3.75 15.25,3.41421356 15.25,3 C15.25,2.58578644 15.5857864,2.25 16,2.25 L21,2.25 C21.4142136,2.25 21.75,2.58578644 21.75,3 L21.75,8 C21.75,8.41421356 21.4142136,8.75 21,8.75 C20.5857864,8.75 20.25,8.41421356 20.25,8 L20.25,4.81066017 L16.5303301,8.53033009 C16.2374369,8.8232233 15.7625631,8.8232233 15.4696699,8.53033009 C15.1767767,8.23743687 15.1767767,7.76256313 15.4696699,7.46966991 L19.1893398,3.75 Z M3.75,4.81066017 L3.75,8 C3.75,8.41421356 3.41421356,8.75 3,8.75 C2.58578644,8.75 2.25,8.41421356 2.25,8 L2.25,3 C2.25,2.58578644 2.58578644,2.25 3,2.25 L8,2.25 C8.41421356,2.25 8.75,2.58578644 8.75,3 C8.75,3.41421356 8.41421356,3.75 8,3.75 L4.81066017,3.75 L8.53033009,7.46966991 C8.8232233,7.76256313 8.8232233,8.23743687 8.53033009,8.53033009 C8.23743687,8.8232233 7.76256313,8.8232233 7.46966991,8.53033009 L3.75,4.81066017 Z M4.81066017,20.25 L8,20.25 C8.41421356,20.25 8.75,20.5857864 8.75,21 C8.75,21.4142136 8.41421356,21.75 8,21.75 L3,21.75 C2.58578644,21.75 2.25,21.4142136 2.25,21 L2.25,16 C2.25,15.5857864 2.58578644,15.25 3,15.25 C3.41421356,15.25 3.75,15.5857864 3.75,16 L3.75,19.1893398 L7.46966991,15.4696699 C7.76256313,15.1767767 8.23743687,15.1767767 8.53033009,15.4696699 C8.8232233,15.7625631 8.8232233,16.2374369 8.53033009,16.5303301 L4.81066017,20.25 Z" id="合并形状" fill="#FFFFFF" fill-rule="nonzero"></path>
    </g>
</svg>