<?xml version="1.0" encoding="UTF-8"?>
<svg width="24px" height="24px" viewBox="0 0 24 24" version="1.1" xmlns="http://www.w3.org/2000/svg" xmlns:xlink="http://www.w3.org/1999/xlink">
    <!-- Generator: Sketch 53.2 (72643) - https://sketchapp.com -->
    <title>icon/全屏返回</title>
    <desc>Created with Sketch.</desc>
    <g id="icon/全屏返回" stroke="none" stroke-width="1" fill="none" fill-rule="evenodd">
        <path d="M16.75,17.8106602 L16.75,21 C16.75,21.4142136 16.4142136,21.75 16,21.75 C15.5857864,21.75 15.25,21.4142136 15.25,21 L15.25,16 C15.25,15.5857864 15.5857864,15.25 16,15.25 L21,15.25 C21.4142136,15.25 21.75,15.5857864 21.75,16 C21.75,16.4142136 21.4142136,16.75 21,16.75 L17.8106602,16.75 L21.5303301,20.4696699 C21.8232233,20.7625631 21.8232233,21.2374369 21.5303301,21.5303301 C21.2374369,21.8232233 20.7625631,21.8232233 20.4696699,21.5303301 L16.75,17.8106602 Z M17.8106602,7.25 L21,7.25 C21.4142136,7.25 21.75,7.58578644 21.75,8 C21.75,8.41421356 21.4142136,8.75 21,8.75 L16,8.75 C15.5857864,8.75 15.25,8.41421356 15.25,8 L15.25,3 C15.25,2.58578644 15.5857864,2.25 16,2.25 C16.4142136,2.25 16.75,2.58578644 16.75,3 L16.75,6.18933983 L20.4696699,2.46966991 C20.7625631,2.1767767 21.2374369,2.1767767 21.5303301,2.46966991 C21.8232233,2.76256313 21.8232233,3.23743687 21.5303301,3.53033009 L17.8106602,7.25 Z M7.25,6.18933983 L7.25,3 C7.25,2.58578644 7.58578644,2.25 8,2.25 C8.41421356,2.25 8.75,2.58578644 8.75,3 L8.75,8 C8.75,8.41421356 8.41421356,8.75 8,8.75 L3,8.75 C2.58578644,8.75 2.25,8.41421356 2.25,8 C2.25,7.58578644 2.58578644,7.25 3,7.25 L6.18933983,7.25 L2.46966991,3.53033009 C2.1767767,3.23743687 2.1767767,2.76256313 2.46966991,2.46966991 C2.76256313,2.1767767 3.23743687,2.1767767 3.53033009,2.46966991 L7.25,6.18933983 Z M6.18933983,16.75 L3,16.75 C2.58578644,16.75 2.25,16.4142136 2.25,16 C2.25,15.5857864 2.58578644,15.25 3,15.25 L8,15.25 C8.41421356,15.25 8.75,15.5857864 8.75,16 L8.75,21 C8.75,21.4142136 8.41421356,21.75 8,21.75 C7.58578644,21.75 7.25,21.4142136 7.25,21 L7.25,17.8106602 L3.53033009,21.5303301 C3.23743687,21.8232233 2.76256313,21.8232233 2.46966991,21.5303301 C2.1767767,21.2374369 2.1767767,20.7625631 2.46966991,20.4696699 L6.18933983,16.75 Z" id="合并形状" fill="#FFFFFF" fill-rule="nonzero"></path>
    </g>
</svg>