<?xml version="1.0" encoding="UTF-8"?>
<svg width="80px" height="80px" viewBox="0 0 80 80" version="1.1" xmlns="http://www.w3.org/2000/svg" xmlns:xlink="http://www.w3.org/1999/xlink">
    <!-- Generator: Sketch 58 (84663) - https://sketch.com -->
    <title>icon/loss</title>
    <desc>Created with Sketch.</desc>
    <defs>
        <rect id="path-1" x="0" y="0" width="80" height="80" rx="8"></rect>
        <circle id="path-3" cx="50" cy="50" r="50"></circle>
        <path d="M25.789813,0 C31.7650407,0 36.9784111,3.24891199 39.7613939,8.07820559 C41.2977011,7.051902 43.142529,6.44745326 45.1321728,6.44745326 C50.47147,6.44745326 54.8033527,10.7793359 54.8033527,16.1186331 C54.8033527,17.3464196 54.5766844,18.5175391 54.1548295,19.6005098 C60.0419084,20.7968146 64.4745326,25.9975923 64.4745326,32.2372663 C64.4745326,39.358428 58.7007878,45.1321728 51.579626,45.1321728 L14.5067698,45.1321728 C6.49782398,45.1321728 5.15143483e-14,38.6343488 5.15143483e-14,30.625403 C5.15143483e-14,24.3038765 4.04854731,18.9268013 9.69006891,16.9371575 C9.67747623,16.6664148 9.67117988,16.3956721 9.67117988,16.1186331 C9.67117988,7.21560687 16.8867868,0 25.789813,0 Z M27.2727273,36.3636364 L27.1975463,36.3624003 L27.1975463,36.3624003 L27.2416938,36.3634258 L27.2727273,36.3636364 L27.1534215,36.3605222 Z M28.779,35.791 L28.78,35.79 L28.7915443,35.781692 L28.817,35.756 L28.79,35.781 L28.837,35.737 L28.8802972,35.6974648 L28.9907938,35.578853 C29.002788,35.5650325 29.0145877,35.5511018 29.0256468,35.5375766 C29.0481803,35.5103039 29.0700896,35.4824965 29.0918221,35.4538095 C29.106402,35.4344002 29.1206304,35.4148106 29.1341702,35.3952091 C29.1496382,35.3731745 29.164725,35.3508527 29.179553,35.3284161 L29.2020791,35.2930238 L29.2020791,35.2930238 L29.2237352,35.2572837 L29.2675971,35.1810817 L29.2957727,35.1276128 C29.368728,34.9855323 29.4271554,34.8347648 29.4690951,34.6765423 C29.4723593,34.6642542 29.4755188,34.6519441 29.478563,34.640466 C29.4886706,34.5997625 29.4976811,34.5586256 29.5054631,34.5165717 C29.5086116,34.4999758 29.5115741,34.4833516 29.5144814,34.467002 L29.5215029,34.4219485 L29.5215029,34.4219485 L29.5275041,34.3768389 L29.5371348,34.2867447 L29.543,34.189 L29.5441385,34.1684826 L29.545244,34.1219426 L29.5454545,18.1818182 C29.5454545,16.9266256 28.5279199,15.9090909 27.2727273,15.9090909 C26.0698344,15.9090909 25.0852072,16.8435976 25.0052432,18.0262133 L25,18.1818182 L24.9998174,28.6040909 L24.0586055,27.6626656 C23.1710503,26.7751104 21.732039,26.7751104 20.8444838,27.6626656 C19.9991931,28.5079563 19.9589412,29.8534339 20.723728,30.7463614 L20.8444838,30.8767874 L25.6656664,35.69797 C25.7057028,35.7380063 25.7472259,35.7765559 25.7899648,35.8134588 L25.8101726,35.8306714 L25.8101726,35.8306714 L25.8305412,35.8475217 L25.898659,35.9015608 L25.9724763,35.9551878 C25.9968477,35.9722175 26.0215686,35.9887815 26.0470796,36.0053956 C26.0623944,36.0152209 26.0778014,36.0248441 26.0929659,36.033834 C26.1276808,36.0549584 26.1630064,36.0751785 26.1989483,36.0946594 C26.2109624,36.1011034 26.2230223,36.1074316 26.2351536,36.1135077 C26.2701438,36.1314934 26.3056612,36.1485979 26.3420843,36.1650317 C26.3568196,36.17164 26.3716108,36.1780833 26.3860506,36.184175 C26.4339357,36.2044837 26.4826611,36.2231974 26.5327179,36.2403306 C26.5396512,36.2427118 26.5465937,36.2450586 26.5529786,36.2473076 C26.5984707,36.2624847 26.6446029,36.2762624 26.6911679,36.288355 C26.6978031,36.2901044 26.7044447,36.2918233 26.711207,36.2937393 C26.7570318,36.305385 26.8034124,36.3156384 26.85008,36.3242149 C26.86104,36.3262788 26.8720122,36.3282617 26.8831139,36.3303696 C26.9237088,36.3373826 26.9646726,36.3433187 27.0058194,36.3480035 C27.0211767,36.3498092 27.0365489,36.3514584 27.0518478,36.3530404 L27.1615981,36.360967 L27.1615981,36.360967 L27.2727273,36.3636364 L27.3037607,36.3634258 C27.3331243,36.3630273 27.3624815,36.3620632 27.3916678,36.3605776 L27.4428036,36.3573562 L27.4428036,36.3573562 L27.4936903,36.3529348 L27.5394799,36.3481474 C27.5796045,36.3434564 27.6194097,36.3377202 27.6584777,36.3308493 C27.6717988,36.328567 27.6851034,36.3261655 27.6989068,36.323743 L27.765077,36.3101385 L27.765077,36.3101385 L27.8303851,36.2945179 L27.8542858,36.2885489 L28.0092429,36.2416461 L28.0092429,36.2416461 L28.1590495,36.1843405 L28.2037778,36.1647917 L28.256971,36.1400587 L28.256971,36.1400587 L28.3093387,36.1141517 L28.3570502,36.0887835 L28.4013058,36.0641006 L28.4013058,36.0641006 L28.4442742,36.0390365 L28.5041421,36.0014454 L28.5726487,35.9556448 L28.6468295,35.901349 L28.700033,35.8597894 L28.776,35.794 L28.777,35.793 L28.778,35.792 L28.779,35.791 Z M36.3326029,15.9093015 C36.3012373,15.9097271 36.2698789,15.9107981 36.2379395,15.912508 C36.2121026,15.9139164 36.1863807,15.9157563 36.1616279,15.9180315 C36.1375764,15.920165 36.1135525,15.9226803 36.0889337,15.9255235 C36.0570777,15.9293614 36.0254246,15.9338584 35.9940875,15.9391622 C35.9709796,15.9429501 35.947919,15.9470958 35.92536,15.9513133 C35.901822,15.9559118 35.878414,15.9608735 35.854812,15.9664728 C35.8254341,15.973191 35.7961639,15.9804992 35.7673674,15.9881141 C35.7325044,15.9975675 35.6979742,16.0078299 35.6642675,16.0188669 C35.6506869,16.0232458 35.6371395,16.0277558 35.6230693,16.032478 C35.574269,16.0492892 35.5262207,16.0677155 35.4789883,16.0876931 L35.4789883,16.0876931 L35.469442,16.0917341 L35.425572,16.1111036 C35.3923038,16.1261985 35.3594637,16.1420716 35.327025,16.1585756 L35.3038556,16.1706458 L35.3038556,16.1706458 L35.2808189,16.1831257 C35.2521978,16.1986643 35.2239478,16.2147998 35.196037,16.2313182 C35.170375,16.2467062 35.1449512,16.2626453 35.1196066,16.2794887 L35.1196066,16.2794887 L35.0597441,16.3198639 C35.04197,16.3323419 35.0243346,16.3451043 35.007016,16.358221 C34.976397,16.3810364 34.9463721,16.4046048 34.9164926,16.4291703 C34.8614727,16.4747088 34.808095,16.5232378 34.7565755,16.5747573 L34.7565755,16.5747573 L34.6472634,16.6919251 C34.6349679,16.7060604 34.6228763,16.7203115 34.6107169,16.7351506 L34.5748148,16.7796969 L34.5748148,16.7796969 L34.5399691,16.8250262 L34.5399691,16.8250262 L34.5019966,16.8777987 C34.4881242,16.8975665 34.4745587,16.9175654 34.4609538,16.9379645 C34.4444635,16.963133 34.4285244,16.9885568 34.4133336,17.0142675 C34.3966179,17.0421296 34.3804825,17.0703796 34.3647764,17.0989714 C34.3564595,17.1143088 34.3483319,17.1297218 34.3405178,17.1452568 C34.3238898,17.1776455 34.3080167,17.2104856 34.292695,17.244114 C34.2849694,17.2611836 34.2774656,17.2783291 34.2703705,17.2951415 C34.2306105,17.3888897 34.1969643,17.485859 34.1702154,17.5852019 C34.1623174,17.6143457 34.1550092,17.6436159 34.1480106,17.6733239 C34.1426917,17.6965958 34.1377299,17.7200038 34.1334175,17.7430964 C34.128914,17.7661008 34.1247683,17.7891615 34.1208186,17.8121702 C34.1156766,17.8436064 34.1111796,17.8752596 34.1073956,17.9077477 C34.1044985,17.9317343 34.1019831,17.9557583 34.0998388,17.9789624 L34.0998388,17.9789624 L34.0943327,18.056731 L34.0943327,18.056731 L34.0931573,18.0798143 L34.0931573,18.0798143 L34.092,18.103 L34.091,18.15 L34.0909091,18.1818182 L34.0909091,34.0909091 C34.0909091,35.3461017 35.1084438,36.3636364 36.3636364,36.3636364 C37.618829,36.3636364 38.6363636,35.3461017 38.6363636,34.0909091 L38.6363636,34.0909091 L38.6359091,23.6680909 L39.5777581,24.6100616 C40.4653133,25.4976169 41.9043246,25.4976169 42.7918798,24.6100616 C43.679435,23.7225064 43.679435,22.2834951 42.7918798,21.3959399 L42.7918798,21.3959399 L37.9706972,16.5747573 C37.9133162,16.5173763 37.8536302,16.4637049 37.7921953,16.4140922 L37.7921953,16.4140922 L37.7285703,16.3642527 C37.7084959,16.349138 37.6882282,16.3343998 37.6679364,16.3203753 L37.6679364,16.3203753 L37.6011434,16.2749925 C37.5776606,16.259719 37.5539576,16.2449237 37.530011,16.2308103 C37.5049792,16.2158133 37.4796349,16.2012844 37.453809,16.1869484 L37.453809,16.1869484 L37.3993197,16.1582491 C37.2617132,16.0876792 37.1159674,16.030733 36.9634054,15.9892541 C36.9289282,15.9798574 36.8942729,15.9712867 36.8600582,15.963468 C36.8423684,15.9595268 36.8246009,15.9557917 36.806374,15.9523893 C36.7814653,15.9474664 36.7564901,15.9429633 36.7316805,15.9387386 C36.700118,15.9335993 36.6683372,15.92911 36.6365529,15.9254384 C36.6142768,15.9227593 36.5919686,15.9204095 36.5694989,15.9182886 L36.5694989,15.9182886 L36.479,15.912 L36.3636364,15.9090909 Z M36.472,15.911 L36.479,15.912 L36.4877237,15.9124599 L36.472,15.911 Z M36.3946698,15.9093015 L36.3636364,15.9090909 L36.462,15.911 L36.4412098,15.9104069 L36.4412098,15.9104069 L36.3946698,15.9093015 Z M28.779,35.791 L28.78,35.79 L28.79,35.781 L28.779,35.791 Z" id="path-5"></path>
    </defs>
    <g id="icon/loss" stroke="none" stroke-width="1" fill="none" fill-rule="evenodd">
        <g>
            <mask id="mask-2" fill="white">
                <use xlink:href="#path-1"></use>
            </mask>
            <g id="矩形"></g>
            <g id="编组-9" mask="url(#mask-2)">
                <mask id="mask-4" fill="white">
                    <use xlink:href="#path-3"></use>
                </mask>
                <use id="椭圆形" fill="#FF6000" xlink:href="#path-3"></use>
                <g id="路径-2" mask="url(#mask-4)">
                    <g transform="translate(18.181818, 25.000000)">
                        <mask id="mask-6" fill="white">
                            <use xlink:href="#path-5"></use>
                        </mask>
                        <use id="形状结合" stroke="none" fill="#FFFFFF" fill-rule="nonzero" xlink:href="#path-5"></use>
                    </g>
                </g>
            </g>
        </g>
    </g>
</svg>