<?xml version="1.0" encoding="UTF-8"?>
<svg width="20px" height="20px" viewBox="0 0 20 20" version="1.1" xmlns="http://www.w3.org/2000/svg" xmlns:xlink="http://www.w3.org/1999/xlink">
    <!-- Generator: Sketch 53.2 (72643) - https://sketchapp.com -->
    <title>icon/后退</title>
    <desc>Created with Sketch.</desc>
    <g id="icon/后退" stroke="none" stroke-width="1" fill="none" fill-rule="evenodd">
        <g id="分组" transform="translate(9.000000, 10.000000) scale(-1, 1) translate(-9.000000, -10.000000) translate(2.000000, 5.000000)" fill="#FFFFFF">
            <path d="M6,3.5 L6,1 C6,0.783629786 6.07017787,0.573096171 6.2,0.4 C6.53137085,-0.0418277999 7.1581722,-0.13137085 7.6,0.2 L12.9333333,4.2 C13.009139,4.25685425 13.0764791,4.32419433 13.1333333,4.4 C13.4647042,4.8418278 13.3751611,5.46862915 12.9333333,5.8 L7.6,9.8 C7.42690383,9.92982213 7.21637021,10 7,10 C6.44771525,10 6,9.55228475 6,9 L6,6.5 L1.6,9.8 C1.42690383,9.92982213 1.21637021,10 1,10 C0.44771525,10 -2.26383298e-15,9.55228475 -2.33146835e-15,9 L0,1 C-2.64977089e-17,0.783629786 0.0701778719,0.573096171 0.2,0.4 C0.53137085,-0.0418277999 1.1581722,-0.13137085 1.6,0.2 L6,3.5 Z" id="合并形状"></path>
        </g>
    </g>
</svg>