<?xml version="1.0" encoding="UTF-8"?>
<svg width="80px" height="80px" viewBox="0 0 80 80" version="1.1" xmlns="http://www.w3.org/2000/svg" xmlns:xlink="http://www.w3.org/1999/xlink">
    <!-- Generator: Sketch 58 (84663) - https://sketch.com -->
    <title>icon/prince</title>
    <desc>Created with Sketch.</desc>
    <defs>
        <rect id="path-1" x="0" y="0" width="80" height="80" rx="8"></rect>
        <circle id="path-3" cx="50" cy="50" r="50"></circle>
    </defs>
    <g id="icon/prince" stroke="none" stroke-width="1" fill="none" fill-rule="evenodd">
        <mask id="mask-2" fill="white">
            <use xlink:href="#path-1"></use>
        </mask>
        <g id="矩形"></g>
        <g id="编组" mask="url(#mask-2)">
            <mask id="mask-4" fill="white">
                <use xlink:href="#path-3"></use>
            </mask>
            <use id="椭圆形" fill="#FF6000" xlink:href="#path-3"></use>
            <g id="编组-2" mask="url(#mask-4)" fill-rule="nonzero">
                <g transform="translate(22.727273, 20.454545)" id="路径">
                    <path d="M23.1491478,57.1477538 L1.85081451,42.1544205 C0.906975491,41.4947094 0.264535454,40.486453 0.065341896,39.3522693 C-0.133851662,38.2180856 0.126584658,37.0512595 0.78914784,36.1094205 L23.2791478,3.99942048 C23.9950424,2.97830721 25.1161516,2.31511583 26.3558145,2.17942048 L45.4224812,0.0127538107 C46.5055341,-0.104688974 47.5073737,0.600309281 47.7624812,1.65942048 L52.2258145,20.3144205 C52.5234986,21.5234682 52.2867064,22.8021461 51.5758145,23.8244205 L29.1724812,55.9994205 C28.5264537,56.9509878 27.5286331,57.6066932 26.3988376,57.8220859 C25.2690421,58.0374786 24.0999635,57.794887 23.1491478,57.1477538 Z" fill="#FFFFFF"></path>
                    <path d="M36.1082876,15.8836466 C37.3764552,16.771777 39.0221163,16.9158413 40.425309,16.261567 C41.8285016,15.6072927 42.776024,14.2540904 42.9109206,12.7117457 C43.0458172,11.1694009 42.3475918,9.67225821 41.0792834,8.78432895 C39.8111158,7.89619861 38.1654548,7.75213427 36.7622621,8.40640861 C35.3590694,9.06068294 34.4115471,10.4138852 34.2766504,11.9562299 C34.1417538,13.4985747 34.8399792,14.9957174 36.1082876,15.8836466 L36.1082876,15.8836466 Z" fill="#FF6000"></path>
                    <path d="M25.2624254,42.7038264 C26.445645,43.5323257 26.6230052,44.5381851 25.7945059,45.7214047 C24.9660066,46.9046243 23.9601471,47.0819845 22.7769275,46.2534852 L12.127951,38.7969916 C10.9447314,37.9684922 10.7673711,36.9626328 11.5958704,35.7794132 C12.4243698,34.5961936 13.4302292,34.4188334 14.6134488,35.2473327 L25.2624254,42.7038264 Z" fill="#FF6000"></path>
                </g>
            </g>
        </g>
    </g>
</svg>