<?xml version="1.0" encoding="UTF-8"?>
<svg width="14px" height="14px" viewBox="0 0 14 14" version="1.1" xmlns="http://www.w3.org/2000/svg" xmlns:xlink="http://www.w3.org/1999/xlink">
    <!-- Generator: Sketch 56.2 (81672) - https://sketch.com -->
    <title>Icon/Home/Rename</title>
    <desc>Created with Sketch.</desc>
    <g id="Icon/Home/Rename" stroke="none" stroke-width="1" fill="none" fill-rule="evenodd">
        <path d="M1.00683124,12.8363228 L3.52616145,11.8821063 L9.70836645,3.05273466 C9.82044399,2.89365919 9.86421639,2.69642977 9.82890902,2.49901185 C9.795876,2.30776083 9.68753322,2.13768867 9.52519224,2.0248239 L8.25167449,1.13278419 C8.12856834,1.04619612 7.98167819,0.999806122 7.82987545,1.00000082 C7.5881991,1.00000082 7.36169796,1.11782395 7.22320595,1.31555029 L1.04185213,10.1434879 L1.00683124,12.8363228 Z M0.640888352,14 C0.46945178,14 0.305210381,13.9313123 0.184772386,13.8093362 C0.0643514819,13.6872917 -0.00221670191,13.5221274 -2.64677169e-13,13.3507591 L0.0433812222,10.0194104 C0.0450561084,9.89076884 0.085509739,9.76557964 0.159409823,9.66030107 L6.40405236,0.741976062 C6.72983483,0.276853309 7.26212394,3.90798505e-14 7.82999584,3.90798505e-14 C8.18681498,-0.000460002523 8.53510587,0.10955268 8.82698043,0.314845883 L10.0989027,1.20576574 C10.4780423,1.46933815 10.7357355,1.87384027 10.8143184,2.32881116 C10.8956359,2.78325224 10.7917417,3.2512975 10.5258449,3.62869381 L4.28173219,12.546489 C4.20790047,12.6519043 4.10402334,12.7326236 3.98365371,12.7781531 L0.867869623,13.9582814 C0.795439337,13.985917 0.718462932,14 0.640888352,14 Z M7,14 C6.44771525,14 6,13.5522847 6,13 C6,12.4477153 6.44771525,12 7,12 C7.55228475,12 8,12.4477153 8,13 C8,13.5522847 7.55228475,14 7,14 Z M10,14 C9.44771525,14 9,13.5522847 9,13 C9,12.4477153 9.44771525,12 10,12 C10.5522847,12 11,12.4477153 11,13 C11,13.5522847 10.5522847,14 10,14 Z M13,14 C12.4477153,14 12,13.5522847 12,13 C12,12.4477153 12.4477153,12 13,12 C13.5522847,12 14,12.4477153 14,13 C14,13.5522847 13.5522847,14 13,14 Z" id="Combined-Shape" fill="#525866"></path>
    </g>
</svg>