<?xml version="1.0" encoding="UTF-8"?>
<svg width="80px" height="80px" viewBox="0 0 80 80" version="1.1" xmlns="http://www.w3.org/2000/svg" xmlns:xlink="http://www.w3.org/1999/xlink">
    <!-- Generator: Sketch 58 (84663) - https://sketch.com -->
    <title>icon/safe</title>
    <desc>Created with Sketch.</desc>
    <defs>
        <rect id="path-1" x="0" y="0" width="80" height="80" rx="8"></rect>
        <circle id="path-3" cx="50" cy="50" r="50"></circle>
        <path d="M47.4597685,23.5005601 C48.6953914,22.5051372 50.7566676,22.5051372 51.9922906,23.3031322 C54.8777916,25.2939781 57.9689917,27.0860155 61.4715899,28.480436 C64.9741882,29.4772396 68.2710873,30.0736649 71.7736856,30.671471 C73.4221352,31.0690879 74.8648857,32.4635084 74.8648857,34.0567373 C75.0705848,39.4328495 75.0705848,45.0091508 74.6591866,50.3866437 C72.5979104,67.7133536 58.7946449,77.2727273 50.1395704,77.2727273 C41.4844958,77.2727273 25.2056991,63.3312837 25,50.3866437 L25,50.3866437 L25,34.0567373 C25,32.4635084 26.235623,31.0690879 27.8840725,30.8702794 C31.3866708,30.6700903 34.68357,29.6746674 37.9804691,28.4790554 C41.4844958,27.4836324 44.781395,25.691595 47.4597685,23.5005601 Z M60.6806703,40.9661961 C59.7931151,40.0786409 58.3541038,40.0786409 57.4665486,40.9661961 L57.4665486,40.9661961 L46.2166725,52.215815 L43.0030008,49.0015004 C42.1154456,48.1139452 40.6764343,48.1139452 39.788879,49.0015004 C38.9013238,49.8890556 38.9013238,51.3280669 39.788879,52.2156221 L39.788879,52.2156221 L44.6100616,57.0368047 C45.4976169,57.9243599 46.9366282,57.9243599 47.8241834,57.0368047 L47.8241834,57.0368047 L60.6806703,44.1803178 C61.5682255,43.2927626 61.5682255,41.8537513 60.6806703,40.9661961 Z" id="path-5"></path>
    </defs>
    <g id="icon/safe" stroke="none" stroke-width="1" fill="none" fill-rule="evenodd">
        <g>
            <mask id="mask-2" fill="white">
                <use xlink:href="#path-1"></use>
            </mask>
            <g id="蒙版"></g>
            <g id="编组-10" mask="url(#mask-2)">
                <mask id="mask-4" fill="white">
                    <use xlink:href="#path-3"></use>
                </mask>
                <use id="椭圆形" fill="#FF6000" xlink:href="#path-3"></use>
                <mask id="mask-6" fill="white">
                    <use xlink:href="#path-5"></use>
                </mask>
                <use id="蒙版" fill="#FFFFFF" fill-rule="nonzero" xlink:href="#path-5"></use>
            </g>
        </g>
    </g>
</svg>