<?xml version="1.0" encoding="utf-8"?>
<!-- Generator: Adobe Illustrator 23.0.6, SVG Export Plug-In . SVG Version: 6.00 Build 0)  -->
<svg version="1.1" id="图层_1" xmlns="http://www.w3.org/2000/svg" xmlns:xlink="http://www.w3.org/1999/xlink" x="0px" y="0px"
	 viewBox="0 0 50 16" style="enable-background:new 0 0 50 16;" xml:space="preserve">
<style type="text/css">
	.st0{fill-rule:evenodd;clip-rule:evenodd;fill:#FF6000;}
	.st1{fill:#FFFFFF;}
</style>
<title>tag</title>
<desc>Created with Sketch.</desc>
<g id="tag">
	<g id="编组">
		<g id="编组-7">
			<path id="形状结合" class="st0" d="M48,0c1.1,0,2,0.9,2,2v12c0,1.1-0.9,2-2,2H7c-0.6,0-1.2-0.3-1.6-0.8l-4.5-6
				c-0.5-0.7-0.5-1.7,0-2.4l4.5-6C5.8,0.3,6.4,0,7,0H48z M7,6.3C6.4,6.6,6,7.3,6,8s0.4,1.4,1,1.7s1.4,0.4,2,0s1-1,1-1.7
				S9.6,6.6,9,6.3S7.6,5.9,7,6.3z"/>
			<path id="限时免费" class="st1" d="M13.7,4.8v7h0.6V5.3h1.3C15.3,6,15,6.8,14.7,7.6c0.6,0.7,0.8,1.3,0.8,1.8
				c0,0.2-0.1,0.3-0.2,0.4c-0.1,0.1-0.3,0.1-0.6,0.1c-0.1,0-0.2,0-0.3,0l0.2,0.6c0.6,0,1-0.1,1.2-0.3c0.2-0.2,0.2-0.4,0.2-0.7
				c0-0.6-0.3-1.2-0.8-1.9c0.3-0.8,0.6-1.5,0.9-2.2V4.8H13.7z M17.1,6.8h2.4v0.9h-2.4V6.8z M19.4,6.3h-2.4V5.3h2.4V6.3z M18,8.2
				c0.3,1.5,1.1,2.7,2.4,3.5l0.3-0.5c-0.6-0.4-1.1-0.8-1.5-1.3c0.5-0.2,0.9-0.6,1.2-1l-0.4-0.4c-0.4,0.4-0.7,0.8-1.1,1
				c-0.2-0.4-0.4-0.8-0.5-1.3H20V4.8h-3.5V11c0,0.1-0.1,0.1-0.2,0.2l0.1,0.5c0.9-0.2,1.6-0.5,2.2-0.7l-0.1-0.5
				c-0.5,0.2-1,0.4-1.4,0.5V8.2H18z M24,5.1h-2.3v6.1h0.6v-0.7h1.2V11H24V5.1z M22.2,9.9V8h1.2v1.9H22.2z M22.2,7.4V5.6h1.2v1.8
				H22.2z M25.1,7.4l-0.5,0.3c0.5,0.7,0.9,1.4,1.1,2l0.5-0.3C26,8.9,25.6,8.2,25.1,7.4z M26.9,11.7c0.5,0,0.7-0.3,0.7-0.8V6.5h1V5.9
				h-1V4.5h-0.6v1.4h-2.8v0.6h2.8v4.3c0,0.2-0.1,0.4-0.4,0.4c-0.4,0-0.9,0-1.3,0l0.1,0.6H26.9z M30.4,6.8v2.3h2
				c0,0.1-0.1,0.2-0.2,0.3c-0.4,0.8-1.4,1.4-2.8,1.9l0.4,0.5c1.6-0.6,2.6-1.4,3-2.3c0.1-0.1,0.1-0.3,0.2-0.4h0.4v1.8
				c0,0.6,0.2,0.8,0.7,0.8h1.6c0.3,0,0.5-0.1,0.6-0.2c0.1-0.2,0.2-0.6,0.3-1.4L36,9.9c0,0.6-0.1,1-0.2,1.1c-0.1,0.1-0.2,0.2-0.3,0.2
				h-1.3c-0.2,0-0.3-0.1-0.3-0.4V9.1h1.8V6.7h-2c0.3-0.3,0.7-0.6,1-1.1V5.2h-2.8c0.1-0.2,0.3-0.4,0.4-0.6l-0.6-0.1
				c-0.6,1-1.5,1.8-2.5,2.4l0.4,0.4C30,7.1,30.2,7,30.4,6.8z M33.1,6.7h-2.5c0.4-0.3,0.7-0.6,1-1h2.4C33.7,6.1,33.4,6.4,33.1,6.7z
				 M35.2,8.5h-2.1c0.1-0.4,0.1-0.9,0.2-1.3h1.9V8.5z M32.5,8.5H31V7.2h1.8C32.7,7.7,32.6,8.1,32.5,8.5z M38.7,6.3h1.1
				c0,0.2,0,0.3-0.1,0.5h-1.2L38.7,6.3z M40.4,6.3h1.2v0.5h-1.2C40.4,6.6,40.4,6.5,40.4,6.3z M42.1,6.3h1.8V4.9h-1.8V4.4h-0.6v0.4
				h-1.2V4.4h-0.6v0.4H38v0.5h1.8v0.5h-1.6l-0.3,1.4h1.6c0,0.1-0.1,0.1-0.2,0.2C39,7.7,38.5,8,37.7,8.1L38,8.6
				c0.2,0,0.4-0.1,0.6-0.2v2.1h0.6V8.9h3.9v1.7h0.6V8.4h-4.9c0.5-0.2,0.8-0.4,1.1-0.6c0.1-0.2,0.3-0.3,0.4-0.5h1.4v0.9h0.6V7.2h1.6
				c0,0.2,0,0.3-0.1,0.4c-0.1,0.1-0.2,0.1-0.5,0.1c-0.1,0-0.3,0-0.4,0l0.1,0.4l0.4,0l0,0c0.4,0,0.7-0.1,0.8-0.3
				c0.1-0.2,0.2-0.5,0.2-1.1h-2.2V6.3z M40.4,5.3h1.2v0.5h-1.2V5.3z M42.1,5.3h1.2v0.5h-1.2V5.3z M41.5,10.4l-0.3,0.4
				c1,0.2,1.9,0.6,2.8,1l0.3-0.5C43.5,11,42.6,10.7,41.5,10.4z M40.8,9.2l0.6,0.1c-0.1,0.9-0.3,1.5-0.7,1.8
				c-0.4,0.4-1.3,0.6-2.8,0.7l-0.2-0.5c1.3-0.1,2.1-0.2,2.5-0.6C40.5,10.4,40.7,9.9,40.8,9.2z"/>
		</g>
	</g>
</g>
</svg>
