<?xml version="1.0" encoding="UTF-8"?>
<svg width="24px" height="24px" viewBox="0 0 24 24" version="1.1" xmlns="http://www.w3.org/2000/svg" xmlns:xlink="http://www.w3.org/1999/xlink">
    <!-- Generator: Sketch 53.2 (72643) - https://sketchapp.com -->
    <title>icon/声音开</title>
    <desc>Created with Sketch.</desc>
    <g id="icon/声音开" stroke="none" stroke-width="1" fill="none" fill-rule="evenodd">
        <path d="M5.75762461,17.5 L2,17.5 C1.58578644,17.5 1.25,17.1642136 1.25,16.75 L1.25,7.25 C1.25,6.83578644 1.58578644,6.5 2,6.5 L5.75762461,6.5 L10.4801853,1.95935903 C10.956743,1.50115902 11.75,1.83889905 11.75,2.5 L11.75,21.5 C11.75,22.161101 10.956743,22.498841 10.4801853,22.040641 L5.75762461,17.5 Z M2.75,8 L2.75,16 L6.05969238,16 C6.25350634,16 6.43979541,16.0750292 6.5795071,16.209359 L10.25,19.7384594 L10.25,4.26154063 L6.5795071,7.79064097 C6.43979541,7.92497077 6.25350634,8 6.05969238,8 L2.75,8 Z M20.5105487,19.5493997 C20.2071237,19.8313679 19.7325686,19.8139738 19.4506003,19.5105487 C19.1686321,19.2071237 19.1860262,18.7325686 19.4894513,18.4506003 C21.2289111,16.8341468 22.25,14.4889015 22.25,11.9604555 C22.25,9.4707261 21.2601593,7.15787292 19.5664346,5.54277975 C19.2666656,5.25692762 19.2553837,4.78218792 19.5412359,4.48241895 C19.827088,4.18264997 20.3018277,4.17136813 20.6015967,4.45722025 C22.5922535,6.35546038 23.75,9.06064079 23.75,11.9604555 C23.75,14.9055974 22.5555564,17.6490053 20.5105487,19.5493997 Z M16.5291761,17.5314816 C16.2356469,17.8237375 15.7607743,17.8227053 15.4685184,17.5291761 C15.1762625,17.2356469 15.1772947,16.7607743 15.4708239,16.4685184 C16.5894339,15.3547607 17.25,13.7291962 17.25,11.9717539 C17.25,10.2411107 16.6095618,8.63777967 15.5200222,7.5246109 C15.2302876,7.22859276 15.2353814,6.75374635 15.5313995,6.46401175 C15.8274176,6.17427715 16.3022641,6.17937096 16.5919987,6.4753891 C17.9587134,7.87174411 18.75,9.85272278 18.75,11.9717539 C18.75,14.1240173 17.9335444,16.1332051 16.5291761,17.5314816 Z" id="合并形状" fill="#FFFFFF" fill-rule="nonzero"></path>
    </g>
</svg>