<?xml version="1.0" encoding="UTF-8"?>
<svg width="24px" height="24px" viewBox="0 0 24 24" version="1.1" xmlns="http://www.w3.org/2000/svg" xmlns:xlink="http://www.w3.org/1999/xlink">
    <!-- Generator: Sketch 53.2 (72643) - https://sketchapp.com -->
    <title>icon/声音关</title>
    <desc>Created with Sketch.</desc>
    <g id="icon/声音关" stroke="none" stroke-width="1" fill="none" fill-rule="evenodd">
        <path d="M19.0606602,12 L22.2426407,15.1819805 C22.5355339,15.4748737 22.5355339,15.9497475 22.2426407,16.2426407 C21.9497475,16.5355339 21.4748737,16.5355339 21.1819805,16.2426407 L18,13.0606602 L14.8180195,16.2426407 C14.5251263,16.5355339 14.0502525,16.5355339 13.7573593,16.2426407 C13.4644661,15.9497475 13.4644661,15.4748737 13.7573593,15.1819805 L16.9393398,12 L13.7573593,8.81801948 C13.4644661,8.52512627 13.4644661,8.05025253 13.7573593,7.75735931 C14.0502525,7.46446609 14.5251263,7.46446609 14.8180195,7.75735931 L18,10.9393398 L21.1819805,7.75735931 C21.4748737,7.46446609 21.9497475,7.46446609 22.2426407,7.75735931 C22.5355339,8.05025253 22.5355339,8.52512627 22.2426407,8.81801948 L19.0606602,12 Z M5.75762461,17.5 L2,17.5 C1.58578644,17.5 1.25,17.1642136 1.25,16.75 L1.25,7.25 C1.25,6.83578644 1.58578644,6.5 2,6.5 L5.75762461,6.5 L10.4801853,1.95935903 C10.956743,1.50115902 11.75,1.83889905 11.75,2.5 L11.75,21.5 C11.75,22.161101 10.956743,22.498841 10.4801853,22.040641 L5.75762461,17.5 Z M2.75,8 L2.75,16 L6.05969238,16 C6.25350634,16 6.43979541,16.0750292 6.5795071,16.209359 L10.25,19.7384594 L10.25,4.26154063 L6.5795071,7.79064097 C6.43979541,7.92497077 6.25350634,8 6.05969238,8 L2.75,8 Z" id="合并形状" fill="#FFFFFF" fill-rule="nonzero"></path>
    </g>
</svg>