<?xml version="1.0" encoding="UTF-8"?>
<svg width="200px" height="60px" viewBox="0 0 200 60" version="1.1" xmlns="http://www.w3.org/2000/svg" xmlns:xlink="http://www.w3.org/1999/xlink">
    <!-- Generator: Sketch 52.5 (67469) - http://www.bohemiancoding.com/sketch -->
    <title>Artboard</title>
    <desc>Created with Sketch.</desc>
    <defs>
        <polygon id="path-1" points="0.00761904762 0.106601979 91.168127 0.106601979 91.168127 49.1429113 0.00761904762 49.1429113"></polygon>
    </defs>
    <g id="Artboard" stroke="none" stroke-width="1" fill="none" fill-rule="evenodd">
        <path d="M54.4886349,26.0868571 C54.5575873,26.0868571 54.6234921,26.1141587 54.672127,26.1626667 C54.7207619,26.2113016 54.7480635,26.2773333 54.7480635,26.3462857 L54.7480635,32.5714286 C54.7480635,32.640381 54.7207619,32.7064127 54.672127,32.7549206 C54.6234921,32.8035556 54.5575873,32.8308571 54.4886349,32.8308571 L41.3457778,32.8308571 C41.2773333,32.8308571 41.2113016,32.8035556 41.1626667,32.7549206 C41.1140317,32.7064127 41.0868571,32.640381 41.0868571,32.5714286 L41.0868571,26.3462857 C41.0868571,26.2773333 41.1140317,26.2113016 41.1626667,26.1626667 C41.2113016,26.1141587 41.2773333,26.0868571 41.3457778,26.0868571 L54.4886349,26.0868571 Z M54.4886349,26 L41.3457778,26 C41.1547937,26 41,26.1547937 41,26.3462857 L41,32.5714286 C41,32.6632381 41.0366984,32.7514921 41.1012063,32.816 C41.1662222,32.8810159 41.2544762,32.9172063 41.3457778,32.9172063 L54.4886349,32.9172063 C54.5803175,32.9172063 54.6686984,32.8810159 54.7330794,32.816 C54.7980952,32.7514921 54.8347937,32.6632381 54.8347937,32.5714286 L54.8347937,26.3462857 C54.8347937,26.2544762 54.7980952,26.1662222 54.7330794,26.1017143 C54.6686984,26.0366984 54.5803175,26 54.4886349,26 Z" id="Fill-1" fill="#FFFFFF"></path>
        <g id="Group-6" transform="translate(4.000000, 5.000000)">
            <mask id="mask-2" fill="white">
                <use xlink:href="#path-1"></use>
            </mask>
            <g id="Clip-4"></g>
            <path d="M91.168127,28.9146667 L90.2063492,28.9146667 C90.5263492,28.9418413 90.848254,28.9418413 91.168127,28.9146667" id="Fill-3" fill="#004889" mask="url(#mask-2)"></path>
            <path d="M15.4043175,0.109587302 L34.9627937,0.109587302 C36.2063492,0.0604444444 37.3953016,0.620444444 38.1493333,1.61053968 C38.9032381,2.60012698 39.1274921,3.89473016 38.7504762,5.0807619 L29.6518095,44.1829841 C28.9177143,46.9935238 26.4424127,49.0008889 23.5412063,49.1393016 L3.96774603,49.1393016 C2.72622222,49.1933968 1.53625397,48.6368254 0.781206349,47.6492698 C0.0262857143,46.6615873 -0.197968254,45.3669841 0.180571429,44.1829841 L9.29409524,5.0807619 C10.0184127,2.26184127 12.4970159,0.245460317 15.4043175,0.109587302" id="Fill-5" fill="#ED171F" mask="url(#mask-2)"></path>
        </g>
        <path d="M37.4488403,5 L59.8923958,5 C62.6294117,5 61.3720149,7.2191746 60.7504276,9.9711746 L51.6369038,49.0733968 C51.0004593,51.8104127 51.1929673,54.0297143 48.4558244,54.0297143 L25.9682054,54.0297143 C24.7261736,54.0838095 23.5362054,53.5272381 22.7812847,52.5396825 C22.0262371,51.552 21.8021101,50.2573968 22.1805228,49.0733968 L31.2941736,9.9711746 C32.0277609,7.13980952 34.5268085,5.12152381 37.4488403,5" id="Fill-7" fill="#082F67"></path>
        <path d="M58.3893453,5.00298532 L77.9484564,5.00298532 C79.191504,4.95384247 80.3804564,5.51384247 81.1344881,6.5039377 C81.8883929,7.49352501 82.1126469,8.78812818 81.735631,9.97415993 L72.6369643,49.0763821 C71.9027421,51.8869218 69.4280754,53.8942869 66.5267421,54.0326996 L46.9682659,54.0326996 C45.7262342,54.0867948 44.5362659,53.5302234 43.7812183,52.5426679 C43.0262977,51.5549853 42.8020437,50.2603821 43.1805834,49.0763821 L52.27925,9.97415993 C53.007885,7.15765199 55.4840754,5.14330278 58.3893453,5.00298532" id="Fill-8" fill="#006A65"></path>
        <path d="M55.2846984,41.4538413 L57.1339683,41.4538413 L57.7108571,39.6786032 L55.8175238,39.6786032 L55.2846984,41.4538413 Z M56.7639365,36.5565714 L56.128,38.6577778 C56.4772063,38.4761905 56.8378413,38.3179683 57.207873,38.184 C57.5779048,38.0660317 58.1547937,38.0660317 58.1547937,38.0660317 L58.5987302,36.5862857 L56.7639365,36.5862857 L56.7639365,36.5565714 Z M57.6815238,33.5977143 L57.0749206,35.6245079 C57.4142222,35.4311111 57.7649524,35.2584127 58.1249524,35.1066667 C58.4369524,35.0377143 58.7535238,34.9930159 59.071873,34.9737143 L59.5159365,33.4940952 L57.7108571,33.4940952 L57.6815238,33.5977143 Z M61.7649524,33.5977143 L59.3829841,41.4831746 L60.0189206,41.4831746 L59.5307937,43.1106032 L58.88,43.1106032 L58.7316825,43.6135873 L56.4533333,43.6135873 L56.6011429,43.1106032 L52,43.1106032 L52.4587937,41.6314921 L52.9177143,41.6314921 L55.831873,32 L58.1399365,32 L57.9032381,32.8134603 C58.2698413,32.5555556 58.6741587,32.3561905 59.1017143,32.2217143 C59.6786032,32.0590476 63.0372063,32.0148571 63.0372063,32.0148571 L62.5485714,33.6125714 L61.7499683,33.6125714 L61.7649524,33.5977143 Z" id="Fill-9" fill="#FFFFFF"></path>
        <path d="M62.8228571,32 L65.2935873,32 L65.2935873,32.9172063 C65.2935873,33.0650159 65.4116825,33.1389206 65.6929524,33.1389206 L66.1959365,33.1389206 L65.7376508,34.6185397 L64.4057143,34.6185397 C63.2519365,34.7074286 62.808,34.2044444 62.8378413,33.6419048 L62.8228571,32 Z M63.1483175,39.2049524 L60.7960635,39.2049524 L61.1954286,37.8438095 L63.887873,37.8438095 L64.2727619,36.6453333 L61.6096508,36.6453333 L62.0684444,35.1657143 L69.4657778,35.1657143 L69.0069841,36.6453333 L66.536254,36.6453333 L66.151746,37.8735238 L68.6373333,37.8735238 L68.2227302,39.2346667 L65.5302857,39.2346667 L65.0570159,39.8115556 L66.151746,39.8115556 L66.4181587,41.5128889 C66.423619,41.6359365 66.4538413,41.7564444 66.5069206,41.8680635 C66.6904127,41.9395556 66.8873651,41.9697778 67.0838095,41.9568254 L67.4092698,41.9568254 L66.8913016,43.5987302 L65.456381,43.5987302 C65.2391111,43.5580952 65.032254,43.472254 64.8496508,43.3473016 C64.6205714,43.2336508 64.4568889,43.0208254 64.4057143,42.7704127 L64.1691429,41.0838095 L62.9409524,42.7113651 C62.5417143,43.3135238 61.8586667,43.6661587 61.136381,43.6434286 L59.4350476,43.6434286 L59.8784762,42.1636825 L60.5297778,42.1636825 C60.695873,42.1568254 60.8576508,42.1111111 61.0029206,42.0307302 C61.1577143,41.9713016 61.287746,41.8620952 61.3729524,41.719746 L63.1483175,39.2049524 Z M37.3611429,35.5060317 L43.6046984,35.5060317 L43.1457778,36.9856508 L40.6453333,36.9856508 L40.2609524,38.2579048 L42.8204444,38.2579048 L42.3616508,39.7376508 L39.7876825,39.7376508 L39.1662222,41.8085079 C39.0921905,42.0307302 39.7728254,42.0600635 40.0093968,42.0600635 L41.2817778,41.8824127 L40.7639365,43.583873 L37.9086984,43.583873 C37.6890159,43.5789206 37.4707302,43.5490794 37.2573968,43.495619 C37.0619683,43.4543492 36.8943492,43.3304127 36.7991111,43.1547937 C36.6279365,42.9786667 36.5709206,42.7212698 36.6507937,42.4891429 L37.479619,39.752 L36,39.752 L36.4732698,38.1989841 L37.9528889,38.1989841 L38.3229206,36.9266032 L36.8433016,36.9266032 L37.3611429,35.5060317 Z M41.4891429,32.8284444 L44.048127,32.8284444 L43.5748571,34.3819683 L40.1572063,34.3819683 L39.7728254,34.7074286 C39.6438095,34.8026667 39.4985397,34.8730159 39.343746,34.9141587 C38.9880635,35.103746 38.592254,35.2049524 38.1894603,35.2102857 L37.0505397,35.2102857 L37.5089524,33.7306667 L37.8491429,33.7306667 C38.0471111,33.7663492 38.2510476,33.7509841 38.4410159,33.6864762 C38.6046984,33.5545397 38.736127,33.3879365 38.8259048,33.1979683 L39.4618413,32.0293333 L42.0064762,32.0293333 L41.4891429,32.8284444 Z" id="Fill-10" fill="#FFFFFF"></path>
        <path d="M46.512381,35.3879365 C47.0585397,34.9450159 47.711873,34.6543492 48.4062222,34.5446349 L50.3739683,34.5446349 L50.6255238,33.6864762 L47.0302222,33.6864762 L46.512381,35.3879365 Z M49.8854603,36.0387302 L46.3050159,36.0387302 L46.0833016,36.7639365 L49.175619,36.7639365 C49.3328254,36.7470476 49.4915556,36.7470476 49.6487619,36.7639365 L49.8854603,36.0387302 Z M45.2549841,32 L47.4444444,32 L47.1339683,33.0947302 C47.4954921,32.8071111 47.8873651,32.5591111 48.3026032,32.3546667 C48.8165079,32.2039365 49.3408254,32.0902857 49.8709841,32.0144762 L53.3621587,32.0144762 L52.1785397,35.9945397 C52.0575238,36.4657778 51.8631111,36.9151746 51.6016508,37.3259683 C51.4587937,37.5594921 51.2539683,37.7490794 51.0099048,37.8735238 C50.7589841,38.0144762 50.4821587,38.1046349 50.1964444,38.1394286 L45.6989206,38.1394286 L44.7371429,41.3055238 C44.6711111,41.4821587 44.6711111,41.6765714 44.7371429,41.8532063 C44.8115556,41.9583492 44.9335873,42.0194286 45.0624762,42.015873 L46.5422222,41.8680635 L45.9648254,43.6434286 L43.0947302,43.6434286 C42.8501587,43.6666667 42.6041905,43.6205714 42.384381,43.5099683 C42.1979683,43.3963175 42.0605714,43.2167619 42,43.0069841 C42.0436825,42.7217778 42.1076825,42.44 42.1925079,42.1636825 L45.2549841,32 Z" id="Fill-11" fill="#FFFFFF"></path>
        <path d="M52.1335685,39.2306032 L51.9267114,40.191873 C51.8796003,40.4692063 51.7447431,40.7231746 51.5418225,40.9170794 C51.225886,41.2097778 50.8032828,41.359619 50.3731876,41.3313016 L49.1748384,41.3313016 L49.1748384,42.4111746 C49.1748384,42.7221587 49.1748384,42.6924444 49.2933146,42.7370159 C49.3385209,42.783746 49.394013,42.8194286 49.4559812,42.840254 L50.9947749,42.840254 L50.4912828,44.3937778 L49.1598543,44.3937778 C48.5368701,44.4676825 47.9049971,44.4017778 47.3107114,44.2013968 C47.1093146,44.064 47.0106479,43.8189206 47.0591558,43.5803175 L47.1480447,39.3486984 L49.2636003,39.3486984 L49.2636003,40.2068571 L49.7814416,40.2068571 C49.898013,40.2345397 50.0195368,40.2345397 50.1366162,40.2068571 C50.2060765,40.1488254 50.2571241,40.071873 50.2844257,39.9851429 L50.4912828,39.3045079 L52.1485527,39.3045079 L52.1335685,39.2306032 Z M21.937632,18 C21.8637273,18.3401905 20.458013,24.5987302 20.458013,24.6135873 C20.3692511,25.6422857 19.9367431,26.6115556 19.2303304,27.3650794 C18.8152193,27.7078095 18.2888701,27.8868571 17.7507114,27.8680635 C17.3801717,27.9097143 17.009632,27.7941587 16.7283622,27.5495873 C16.4470923,27.3050159 16.2813781,26.9537778 16.2714733,26.5808254 L16.2714733,26.2852063 C16.2714733,26.2852063 16.5373781,24.583746 16.5522352,24.583746 C16.5670923,24.583746 18.0319812,18.8730159 18.2387114,18.1184762 L18.2387114,18.0445714 C17.1405527,18.1229206 16.0378225,18.1229206 14.9396638,18.0445714 L14.8509019,18.4587937 L13.3716638,24.8943492 L13.2383304,25.4419048 L13.001632,27.2172698 C12.9852511,27.6805079 13.0924257,28.1403175 13.3122352,28.5485714 C13.977886,29.7177143 15.8717273,29.880381 16.9371241,29.880381 C18.1678543,29.9165714 19.3866479,29.6308571 20.4728701,29.0515556 C21.7288701,28.2454603 22.5839812,26.944381 22.825632,25.4712381 L22.9882987,24.8353016 C22.9882987,24.8353016 24.4674098,18.9170794 24.7041082,18.1333333 C24.7005527,18.103619 24.7005527,18.0739048 24.7041082,18.0445714 C23.7730606,18.1020952 22.8394733,18.1020952 21.9079177,18.0445714 L21.937632,18 Z M30.0601717,29.7767619 L27.5745844,29.7767619 L27.5745844,29.7028571 L27.8850606,28.3859048 L28.0328701,27.7941587 C28.2402352,26.8620952 28.4619495,25.7822222 28.4768066,25.4567619 C28.5418225,25.3000635 28.5235368,25.1210159 28.4277908,24.9810794 C28.3325527,24.8412698 28.1728066,24.7583492 28.0036638,24.7613968 C27.7432193,24.7892063 27.4917908,24.8694603 27.2636003,24.9979683 C27.1306479,25.5009524 26.8493781,26.8769524 26.7164257,27.527746 C26.4351558,28.8595556 26.4054416,29.0073651 26.2873463,29.6730159 L26.1985844,29.7619048 L23.6688066,29.7619048 L23.6688066,29.6730159 L24.2456955,27.2761905 C24.5725527,25.936 24.8196638,24.5773968 24.9852511,23.207746 L25.07414,23.207746 C26.2134416,23.0450794 26.553759,23.0153651 27.7223939,22.7638095 L27.826013,22.8824127 L27.6484892,23.5629206 C27.8553463,23.4444444 28.0478543,23.3114921 28.2700765,23.207746 C28.7650606,22.9737143 29.3047431,22.847619 29.8528066,22.8377143 C30.4302035,22.7663492 30.9872828,23.0778413 31.2288066,23.6071111 C31.4049336,24.4736508 31.3281082,25.3724444 31.0065844,26.1964444 L30.8439177,26.8769524 C30.5334416,28.3565714 30.4743939,28.6521905 30.2967431,29.688 L30.0601717,29.7767619 Z M34.0547114,29.7767619 L31.4213146,29.7767619 C31.4907749,29.4304762 31.5849971,29.0892698 31.7020765,28.7559365 C31.8196638,28.4379683 31.913886,28.111619 31.9833463,27.7791746 C32.1608701,27.0247619 32.2646162,26.4920635 32.3385209,26.0486349 C32.4124257,25.6045714 32.4564892,25.2196825 32.5160447,24.776254 L33.8623304,24.583746 L35.2531876,24.3323175 C35.1345844,24.8054603 35.0161082,25.264381 34.9128701,25.8114286 L34.6609336,27.1582222 C34.4392193,28.1492063 34.3503304,28.5193651 34.306267,28.7856508 C34.2615685,29.0515556 34.306267,29.1701587 34.1579495,29.688 L34.0547114,29.7767619 Z M40.3276003,26.2852063 C40.225886,26.8506667 40.0309654,27.3958095 39.7507114,27.8977778 C39.5964257,28.1671111 39.3201082,28.344254 39.0106479,28.3710476 C38.8305844,28.3714286 38.6599177,28.2891429 38.5472828,28.1478095 C38.4351558,28.0068571 38.3929971,27.8218413 38.433759,27.6463492 C38.4382035,27.2667937 38.4877273,26.8893968 38.5815685,26.5217778 C38.8329971,25.3823492 39.1439812,24.4210794 39.9282352,24.4210794 C40.7119812,24.4210794 40.5790289,25.1309206 40.3127431,26.2852063 L40.3276003,26.2852063 Z M42.8870923,26.3888254 C43.2269019,25.5158095 43.1335685,24.5337143 42.6355368,23.7405714 C42.0135685,23.1160635 41.146013,22.8015238 40.2685527,22.8824127 C39.1891876,22.8422857 38.1340765,23.2063492 37.3091876,23.9032381 C36.6242352,24.6050794 36.1653146,25.4970159 35.9927431,26.4627302 C35.7853781,27.3799365 35.5339495,29.0515556 37.0726162,29.6730159 C37.5865209,29.8501587 38.1272193,29.9354921 38.6703304,29.9245714 C39.8423939,29.976127 40.9813146,29.5301587 41.8072193,28.6968889 C42.3429654,28.0227302 42.7129971,27.232127 42.8870923,26.3888254 Z M68.481886,22.9414603 C67.2536955,23.1636825 66.9282352,23.207746 65.7447431,23.3853968 L65.6559812,23.3853968 L65.6559812,23.6666667 C65.4595368,23.3387937 65.1569336,23.087746 64.7978225,22.9563175 C63.7517273,22.8253968 62.705505,23.2053333 61.9867749,23.9771429 C61.2997908,24.672127 60.8404892,25.5594921 60.6703304,26.5217778 C60.4629654,27.4245079 60.2115368,29.096254 61.7353463,29.688 C62.1639177,29.8744127 62.6296955,29.9607619 63.0963622,29.9394286 C63.5834733,29.8888889 64.0403622,29.6815238 64.3984574,29.3476825 L64.2506479,29.8209524 L64.2506479,29.9097143 L66.8691876,29.9097143 L66.9729336,29.8209524 C67.1504574,28.8 67.3131241,27.8090159 67.7715368,25.856127 L68.4376955,23.0599365 L68.481886,22.9414603 Z M64.5909654,28.016381 C64.345886,28.2930794 63.9987114,28.4587937 63.6291876,28.4746667 C63.4520447,28.4736508 63.2844257,28.3937778 63.1728066,28.255873 C63.0611876,28.1184762 63.0164892,27.9384127 63.0522987,27.7648254 C63.0637273,27.3848889 63.1182035,27.0073651 63.2149654,26.640381 C63.4813781,25.5158095 63.7769971,24.5688889 64.5612511,24.5688889 C65.0492511,24.5688889 65.3156638,25.0276825 65.2566162,25.7970794 L65.1236638,26.4330159 C65.0492511,26.7733333 64.9604892,27.0986667 64.8717273,27.4389841 C64.8046796,27.6433016 64.7104574,27.8372063 64.5909654,28.016381 Z M49.6187749,29.7767619 L47.1330606,29.7767619 L47.1330606,29.7028571 L47.4436638,28.3859048 L47.5771241,27.7941587 C47.7838543,26.8620952 48.0060765,25.7822222 48.0205527,25.4567619 C48.0854416,25.3000635 48.0671558,25.1210159 47.9719177,24.9810794 C47.8761717,24.8412698 47.7169336,24.7583492 47.5472828,24.7613968 C47.2868384,24.7886984 47.0354098,24.8689524 46.8077273,24.9979683 C46.674267,25.5009524 46.393505,26.8769524 46.2451876,27.527746 C45.9644257,28.8595556 45.9495685,29.0073651 45.8161082,29.6730159 L45.7273463,29.7619048 L43.1975685,29.7619048 L43.1975685,29.6730159 L43.7744574,27.2761905 C44.1028384,25.9365079 44.3498225,24.5777778 44.5145209,23.207746 L44.6034098,23.207746 C45.7422035,23.0450794 46.0825209,23.0153651 47.2516638,22.7638095 L47.3549019,22.8824127 L47.1772511,23.5629206 L47.7988384,23.207746 C48.2943304,22.9732063 48.834013,22.8472381 49.3815685,22.8377143 C49.9625209,22.7687619 50.5225209,23.0788571 50.7725527,23.6071111 C50.9406796,24.4751746 50.8587749,25.3734603 50.5358543,26.1964444 L50.3731876,26.8769524 C50.0478543,28.3565714 50.0031558,28.6521905 49.825632,29.688 L49.6187749,29.7767619 Z M58.1405527,18 L53.9976955,18 L53.8940765,18.4140952 L53.1543939,21.9503492 L51.2462035,29.8209524 L54.2050606,29.8209524 C54.2050606,29.4662857 54.7080447,27.3799365 54.7080447,27.3799365 C54.7080447,27.3799365 55.0780765,25.9003175 55.0924257,25.7822222 C55.1728066,25.7003175 55.2685527,25.6349206 55.3736955,25.5897143 L55.5363622,25.5897143 C57.2154733,25.7668571 58.9063939,25.3987302 60.3598543,24.5391746 C61.3469019,23.7881905 62.0299495,22.7062857 62.2829019,21.4915556 C62.3677273,21.1428571 62.4124257,20.7851429 62.4158543,20.4265397 C62.4387114,19.9428571 62.3037273,19.4652698 62.0314733,19.0653968 C61.306267,18.0594286 59.8712193,18.0445714 58.2144574,18.0297143 L58.1405527,18 Z M59.2794733,21.6989206 C59.1207431,22.4548571 58.6321082,23.1006984 57.9480447,23.4593016 C57.3523622,23.6998095 56.7099495,23.8010159 56.0691876,23.7554286 L55.6251241,23.7554286 L55.6251241,23.5777778 L56.4392193,20.0713651 L56.4392193,19.672127 L56.7645527,19.672127 L58.4808701,19.8199365 C59.1629019,20.1179683 59.4887431,20.9006984 59.2204257,21.5951746 L59.2794733,21.6989206 Z M35.1345844,23.7405714 C35.7853781,23.2966349 35.8592828,22.6601905 35.3122352,22.3347302 C34.5979495,22.0629841 33.794267,22.1746032 33.1816955,22.6308571 C32.5303939,23.0749206 32.4564892,23.7107302 33.0041717,24.0361905 C33.7184574,24.3461587 34.5423304,24.2623492 35.1787749,23.8144762 L35.1345844,23.7405714 Z M76.6782035,22.9266032 L76.5894416,22.8233651 C75.3761082,23.0599365 75.1098225,23.104127 74.0448066,23.2524444 L73.9560447,23.3406984 C73.1272193,25.264381 73.1569336,24.8204444 72.4764257,26.3000635 L72.4764257,26.1225397 L72.2695685,22.9266032 L72.1658225,22.8233651 C70.8935685,23.0599365 70.8637273,23.104127 69.6950923,23.2524444 L69.6063304,23.3406984 L69.6063304,23.4741587 C69.7223939,24.056 69.8062035,24.6438095 69.857759,25.2345397 C69.857759,25.8114286 70.0205527,26.4031746 70.0796003,26.9805714 C70.1980765,27.9419683 70.2719812,28.4598095 70.4049336,29.9394286 C69.6211876,31.255873 69.4288066,31.7445079 68.674267,32.8982857 L68.1415685,33.7564444 C68.0973781,33.8342857 68.0304574,33.896254 67.9490606,33.9339683 C67.8319812,33.9583492 67.7114733,33.9583492 67.5943939,33.9339683 L67.209505,33.9339683 L66.7655685,35.4137143 L68.2451876,35.4137143 C69.0210606,35.5301587 69.7879177,35.1527619 70.1683622,34.4666667 L71.13014,32.824381 L71.233759,32.7057778 C71.8696955,31.3302857 76.7670923,22.9266032 76.7670923,22.9266032 L76.6782035,22.9266032 Z" id="Fill-12" fill="#FFFFFF"></path>
        <path d="M89.2164838,46.1617355 C89.4050552,45.2624339 89.7561663,44.405291 90.2522933,43.6314497 C90.5974361,43.1284656 91.0106425,42.6751323 91.4804838,42.285291 C91.9213726,41.9103069 92.4209282,41.6101164 92.9595949,41.3977989 C93.6644838,41.1349418 94.4120393,41.0045291 95.1639123,41.0129101 C96.3772457,40.9111958 97.5622615,41.4151958 98.3301345,42.3591958 C99.0314679,43.4831323 99.1942615,44.861164 98.7740711,46.117037 C98.4883568,47.565545 97.7284838,48.877037 96.6138171,49.845291 C95.5603568,50.7351958 94.2200393,51.213291 92.8414996,51.1919577 C91.6257536,51.3020529 90.4347695,50.8036402 89.6605472,49.8601482 C88.9774996,48.7519577 88.814706,47.3998307 89.2164838,46.1617355 Z M91.2879758,46.1617355 C91.0037853,46.9955132 91.0732457,47.9097989 91.4804838,48.6915132 C91.8727377,49.2699259 92.5429599,49.5967831 93.2408647,49.549672 C94.0389599,49.5456085 94.8053092,49.2385609 95.3861345,48.6915132 C96.1162933,47.9886561 96.6034044,47.0714497 96.7766107,46.0729736 C97.0647377,45.2421164 97.006198,44.3298624 96.6138171,43.5426878 C96.2115314,42.9707513 95.5354679,42.6553228 94.838579,42.7143704 C94.0329917,42.7084021 93.2552139,43.0099894 92.6639758,43.557545 C91.9611187,44.245037 91.4903885,45.1344339 91.3171822,46.1021799 L91.2879758,46.1617355 Z M105.653563,51.029291 L103.774579,51.029291 L104.617881,47.389418 C104.755785,46.9082751 104.830579,46.4107513 104.840103,45.9103069 C104.824738,45.7043386 104.728992,45.5129736 104.57369,45.3774815 C104.400611,45.2431323 104.185754,45.1746878 103.967087,45.1851005 C103.633246,45.1859894 103.305881,45.2783069 103.020166,45.4513863 C102.7295,45.6220529 102.489373,45.8671323 102.324674,46.1617355 C102.084039,46.685037 101.909944,47.237164 101.806833,47.8036402 L101.067277,51.029291 L99.1734361,51.029291 L100.815722,43.8978624 L102.57623,43.8978624 L102.339531,44.9484021 C103.01369,44.1994497 103.966071,43.7609736 104.972928,43.7351958 C105.349944,43.7261799 105.724039,43.8021164 106.067785,43.957418 C106.341055,44.0748783 106.569246,44.277291 106.71896,44.5343069 C106.845563,44.7763386 106.911468,45.045164 106.91096,45.3184339 C106.89369,45.7480212 106.829182,46.1746878 106.71896,46.5908148 L105.653563,51.029291 Z M107.576611,51.029291 L109.855468,41.1755767 L111.734452,41.1755767 L109.470452,51.029291 L107.576611,51.029291 Z M111.408484,51.029291 L113.050896,43.8978624 L114.944738,43.8978624 L113.302325,51.029291 L111.408484,51.029291 Z M113.273119,42.9509418 L113.672357,41.205418 L115.566198,41.205418 L115.166452,42.9509418 L113.273119,42.9509418 Z M121.705627,51.029291 L119.82715,51.029291 L120.670452,47.389418 C120.807341,46.9077672 120.882262,46.4107513 120.892166,45.9103069 C120.876801,45.7043386 120.781055,45.5129736 120.625754,45.3774815 C120.453182,45.2431323 120.237817,45.1746878 120.01915,45.1851005 C119.685309,45.1859894 119.357944,45.2783069 119.07223,45.4513863 C118.781563,45.6220529 118.541436,45.8671323 118.377246,46.1617355 C118.137119,46.685545 117.963023,47.237164 117.859404,47.8036402 L117.119341,51.029291 L115.21115,51.029291 L116.852928,43.8978624 L118.59896,43.8978624 L118.362389,44.9484021 C119.03642,44.1994497 119.98842,43.7609736 120.995785,43.7351958 C121.372801,43.7261799 121.746769,43.8021164 122.090516,43.957418 C122.363404,44.0748783 122.591595,44.277291 122.741309,44.5343069 C122.868293,44.7763386 122.934325,45.045164 122.933817,45.3184339 C122.915404,45.7480212 122.851023,46.1746878 122.741309,46.5908148 L121.705627,51.029291 Z M128.274516,48.7505609 L130.079595,49.061545 C129.728484,49.7019259 129.219023,50.2416085 128.599976,50.629545 C127.968484,51.0014815 127.246833,51.1909418 126.514135,51.1771005 C125.522135,51.3030688 124.550325,50.8258624 124.043404,49.9637672 C123.716547,49.1851005 123.669436,48.317545 123.910452,47.5080212 C124.117817,46.4355132 124.66842,45.4593863 125.478452,44.7266878 C126.181309,44.0823704 127.099531,43.7237672 128.052801,43.7202116 C128.940801,43.6423704 129.802896,44.0422434 130.316293,44.7708783 C130.791976,45.7847196 130.839595,46.9470053 130.449627,47.9960212 L125.715023,47.9960212 C125.588039,48.4341164 125.647087,48.9048466 125.877817,49.2981164 C126.103976,49.6071958 126.471976,49.7802751 126.854452,49.7565291 C127.137627,49.7560212 127.41496,49.6736085 127.653563,49.5198307 C127.927341,49.3155132 128.146135,49.0461799 128.2895,48.7357037 L128.274516,48.7505609 Z M128.837055,46.8273863 C128.966579,46.4127831 128.918452,45.9623704 128.703595,45.5848466 C128.503214,45.2965926 128.166452,45.1339259 127.81623,45.1557672 C127.398579,45.1567831 126.997309,45.3150053 126.691785,45.5991958 C126.338008,45.9241482 126.099023,46.3551323 126.01115,46.8273863 L128.837055,46.8273863 Z M138.926833,51.029291 L141.160992,41.1755767 L144.341563,41.1755767 C145.123785,41.1409101 145.907531,41.1905609 146.679341,41.3238942 C147.19769,41.4588783 147.633754,41.8085926 147.877817,42.285291 C148.154008,42.8838942 148.201627,43.5630053 148.010642,44.1939894 C147.889627,44.7292275 147.658008,45.2331005 147.330135,45.6731005 C146.798833,46.4172275 146.015595,46.9429418 145.125817,47.1528466 C144.431341,47.2648466 143.728484,47.3144974 143.025119,47.3006561 L141.737881,47.3006561 L140.879722,51.0144339 L138.897119,51.0144339 L138.926833,51.029291 Z M142.803404,42.8477037 L142.152103,45.6438942 L143.246833,45.6438942 C143.789436,45.669164 144.333055,45.6145609 144.859404,45.4812275 C145.137627,45.3805291 145.386642,45.2127831 145.584611,44.9925926 C145.782071,44.7753228 145.919468,44.5099259 145.983849,44.2237037 C146.072738,43.9241482 146.030071,43.6012275 145.865881,43.3358307 C145.702706,43.1037037 145.45115,42.9484021 145.170389,42.9067513 C144.677817,42.869037 144.183341,42.869037 143.690769,42.9067513 L142.728992,42.9067513 L142.803404,42.8477037 Z M150.644166,46.0729736 L149.002262,45.7619894 C149.304357,45.1533545 149.770642,44.6408466 150.348547,44.2827513 C151.028039,43.9147513 151.795912,43.7406561 152.567722,43.7797672 C153.184357,43.7365926 153.801881,43.8383069 154.372801,44.0753863 C154.694706,44.2252275 154.944738,44.4965926 155.067785,44.8299259 C155.152992,45.3948783 155.107404,45.9722751 154.934833,46.5169101 L154.402008,48.7212275 C154.282516,49.1765926 154.203658,49.6423704 154.165436,50.1115767 C154.159468,50.4365291 154.199722,50.7599577 154.284039,51.0734815 L152.419912,51.0734815 L152.419912,50.5114497 C152.423341,50.437545 152.423341,50.3631323 152.419912,50.2892275 C152.058769,50.5858624 151.654579,50.8249736 151.221563,50.9995767 C150.830198,51.1537355 150.413944,51.2341164 149.993373,51.2361482 C149.396166,51.2877037 148.807849,51.0644656 148.395658,50.629545 C148.070198,50.2098624 147.965563,49.6597672 148.114389,49.1503069 C148.204166,48.7529736 148.386642,48.3829418 148.647087,48.0699259 C148.910452,47.7550053 149.245309,47.5064974 149.623341,47.3452275 C150.137627,47.1378624 150.673881,46.989164 151.221563,46.901291 C151.878706,46.8026243 152.527087,46.6488466 153.159468,46.4424974 L153.159468,46.2504974 C153.25623,45.9946243 153.22296,45.7078942 153.070706,45.4812275 C152.790452,45.2857989 152.447722,45.2009736 152.108928,45.2445291 C151.820166,45.2317037 151.533944,45.2981164 151.280484,45.4365291 C151.019658,45.6145609 150.806325,45.853164 150.659023,46.1320212 L150.644166,46.0729736 Z M152.834135,47.6116402 C152.434769,47.725672 152.029563,47.8195132 151.620801,47.8924021 C151.243277,47.9533545 150.875277,48.0630688 150.526071,48.2182434 C150.283531,48.3621164 150.107912,48.5957672 150.037944,48.869037 C149.971531,49.1042116 150.021055,49.3566561 150.170896,49.549672 C150.341563,49.7445926 150.592992,49.8482116 150.851404,49.8309418 C151.226516,49.8179894 151.590579,49.7004021 151.902071,49.4906243 C152.150579,49.3392593 152.354896,49.125037 152.493817,48.869037 C152.621817,48.5749418 152.716039,48.2673863 152.774579,47.9519577 L152.834135,47.6116402 Z M156.488357,43.8978624 L158.500293,43.8978624 L159.032992,48.9579259 L161.873246,43.8978624 L163.826642,43.8978624 L159.728484,50.7628783 L158.98842,52.005545 C158.784484,52.3407831 158.551849,52.6577355 158.293436,52.9524656 C158.107404,53.1588148 157.893182,53.3383704 157.656992,53.485164 C157.40696,53.6270053 157.138135,53.7316402 156.857881,53.7956402 C156.533944,53.8765291 156.201119,53.9166561 155.866896,53.9142434 C155.518071,53.9147513 155.170896,53.8750053 154.831087,53.7956402 L155.008738,52.3160212 C155.266642,52.3715132 155.528992,52.4013545 155.792992,52.4047831 C156.184738,52.4231958 156.56823,52.2847831 156.857881,52.0204021 C157.147658,51.7365926 157.387658,51.4068148 157.56823,51.0436402 L156.488357,43.8978624 Z M164.832611,43.8978624 L166.578135,43.8978624 L166.35642,44.8744974 C167.003277,44.1835767 167.896103,43.7743069 168.842008,43.7351958 C169.235912,43.7193228 169.626262,43.8169736 169.966071,44.0163386 C170.273119,44.2182434 170.498262,44.5223704 170.602516,44.8744974 C170.957563,44.5242751 171.367341,44.2346243 171.815722,44.0163386 C172.20023,43.8358942 172.618769,43.7396402 173.043404,43.7351958 C173.485944,43.7147513 173.923912,43.8284021 174.300928,44.0605291 C174.611404,44.2832593 174.823214,44.6176085 174.892674,44.9925926 C174.936738,45.4911323 174.886198,45.9925926 174.744865,46.4722116 L173.709055,51.029291 L171.815722,51.029291 L172.762642,46.9603386 C172.907531,46.5223704 172.948166,46.0560847 172.880738,45.5991958 C172.755277,45.3269418 172.468547,45.165672 172.170389,45.1999577 C171.887722,45.2044021 171.611404,45.2861799 171.371785,45.4365291 C171.091023,45.6106243 170.861944,45.8557037 170.706135,46.1468783 C170.477944,46.6160847 170.313754,47.1136085 170.2175,47.6264974 L169.433754,51.0584974 L167.539912,51.0584974 L168.442262,47.1528466 C168.567214,46.7143704 168.636674,46.2619259 168.649627,45.8065609 C168.644674,45.6319577 168.570262,45.4667513 168.442262,45.3477672 C168.282008,45.2381799 168.089119,45.1859894 167.895087,45.1999577 C167.597436,45.1994497 167.305373,45.2812275 167.051912,45.4365291 C166.7775,45.6007196 166.552357,45.8358942 166.400611,46.117037 C166.170896,46.5858624 166.006706,47.0833863 165.912484,47.5967831 L165.113373,51.0584974 L163.220039,51.0584974 L164.832611,43.8978624 Z M180.278071,48.7505609 L182.08315,49.061545 C181.73242,49.7024339 181.22296,50.2421164 180.603404,50.629545 C179.972039,51.0014815 179.250262,51.1909418 178.51769,51.1771005 C177.525563,51.3030688 176.553881,50.8258624 176.04696,49.9637672 C175.719976,49.1851005 175.672865,48.317545 175.9135,47.5080212 C176.123785,46.4360212 176.673373,45.4607831 177.481881,44.7266878 C178.185754,44.0838942 179.10296,43.725164 180.056357,43.7202116 C180.94423,43.6423704 181.806325,44.0422434 182.319722,44.7708783 C182.794896,45.7847196 182.843023,46.9470053 182.453182,47.9960212 L177.718579,47.9960212 C177.587023,48.4320847 177.640611,48.9028148 177.866896,49.2981164 C178.092547,49.6071958 178.460547,49.7802751 178.843023,49.7565291 C179.126706,49.7560212 179.404039,49.6736085 179.642135,49.5198307 C179.915404,49.3150053 180.134198,49.045672 180.278071,48.7357037 L180.278071,48.7505609 Z M180.825627,46.8273863 C180.95515,46.4127831 180.907023,45.9623704 180.692293,45.5848466 C180.491785,45.2965926 180.155023,45.1339259 179.804801,45.1557672 C179.38715,45.1567831 178.985881,45.3150053 178.680357,45.5991958 C178.32569,45.9236402 178.086579,46.3547513 177.999722,46.8273863 L180.825627,46.8273863 Z M189.746769,51.029291 L187.852928,51.029291 L188.711087,47.389418 C188.848992,46.9082751 188.923404,46.4107513 188.933309,45.9103069 C188.919468,45.7039577 188.823214,45.5119577 188.666896,45.3774815 C188.493817,45.2431323 188.279087,45.1746878 188.060293,45.1851005 C187.725944,45.1859894 187.398579,45.2783069 187.113373,45.4513863 C186.822198,45.6220529 186.582579,45.8671323 186.417881,46.1617355 C186.177373,46.685037 186.003785,47.237164 185.900039,47.8036402 L185.160484,51.029291 L183.2815,51.029291 L184.923912,43.8978624 L186.684293,43.8978624 L186.447722,44.9484021 C187.121754,44.1994497 188.073627,43.7609736 189.081119,43.7351958 C189.458135,43.7261799 189.832103,43.8021164 190.175849,43.957418 C190.449627,44.0739894 190.677817,44.2762751 190.826642,44.5343069 C190.952611,44.7763386 191.018642,45.045164 191.01915,45.3184339 C191.00023,45.7480212 190.935849,46.1746878 190.826642,46.5908148 L189.746769,51.029291 Z M196.655976,43.853672 L196.315785,45.3329101 L195.01369,45.3329101 L194.421944,48.2182434 C194.334579,48.5536085 194.270071,48.8944339 194.229436,49.2390688 C194.231976,49.3313863 194.275023,49.4182434 194.348039,49.4757672 C194.432865,49.5397672 194.538008,49.5710053 194.643658,49.5645291 C194.916928,49.5426878 195.185754,49.4826243 195.442769,49.3868783 L195.265119,50.8661164 C194.769627,51.0560847 194.242389,51.1513228 193.711595,51.1473863 C193.411531,51.1523386 193.113373,51.0917672 192.839087,50.9697355 C192.62423,50.8859259 192.44569,50.7287196 192.336103,50.5257989 C192.243785,50.2912593 192.213055,50.0362751 192.247341,49.7862434 C192.298389,49.3368466 192.382198,48.8918942 192.498769,48.4549418 L193.223468,45.3477672 L192.365309,45.3477672 L192.705627,43.8685291 L193.578642,43.8685291 L194.007722,41.3532275 L195.901563,41.3532275 L195.324166,43.8685291 L196.611404,43.8685291 L196.655976,43.853672 Z" id="Fill-18" fill="#082F67"></path>
        <path d="M176.452677,28.6364509 L176.452677,24.4286797 L179.567301,24.4286797 L179.567301,21.8679277 L176.452677,21.8679277 L176.452677,18.5598609 L179.567301,18.5598609 L179.567301,16 L172,16 L172,18.5598609 L174.318796,18.5598609 L174.318796,21.8679277 L172,21.8679277 L172,24.4286797 L174.318796,24.4286797 L174.318796,29.3977081 C174.318796,30.2648417 174.515091,30.9152494 174.906872,31.3495923 C175.291547,31.7831591 175.775786,32 176.360321,32 L178.800126,32 L180,29.439248 L176.995005,29.439248 C176.633268,29.439248 176.452677,29.1719843 176.452677,28.6364509 Z M175.195251,13.8596234 L180,13.8596234 L180,11.4274485 L176.123046,11.4274485 C176.206388,10.9938825 176.265504,10.5198783 176.29275,10 L174.013048,10 C174.013048,10 173.975241,12.9856283 172,13.7008899 L172,16 C172,16 173.918424,15.8466473 175.195251,13.8596234 Z M185,20 L185,17 L193,17 L193,18.8001458 C193,19.478064 192.750117,20 191.964243,20 L185,20 Z M185,13 L192.007778,13 C192.634807,13 193,13.1592539 193,13.8013767 L193,15 L185,15 L185,13 Z M194.703697,29.5942553 C194.041928,29.6026364 193.482729,29.4305558 193.025534,29.0764016 C192.798803,28.9012855 192.545456,28.6004532 192.264822,28.1769403 C193.260644,27.7824925 194.799605,26.8740055 195.723126,24.7271071 C195.478884,24.5778864 194.38036,23.9206167 194.08901,23.7408533 C193.73527,24.8467255 192.422288,26.0133604 191.264381,26.3743107 C191.234677,26.3141926 191.204999,26.2547998 191.175402,26.1923716 L189.987066,23.7995209 L189.080304,22.0022638 L192.743315,22.0022638 C193.462183,22.0022638 194.033522,21.6618632 194.45873,20.9802293 C194.662685,20.6527226 194.764556,20.0708826 194.764556,19.2346823 L194.764556,12.2245308 C194.764556,11.5947413 194.572874,11.0731268 194.188678,10.6596067 C193.780148,10.2194123 193.217216,10 192.498348,10 L182,10 L182,29.5165961 C182,30.3268741 182.203848,30.9391493 182.612377,31.3526963 C183.03686,31.7844828 183.526794,32 184.082207,32 L187.280342,32 L188.546216,29.5942553 L185.025469,29.5942553 C184.805667,29.5942553 184.617665,29.521109 184.462509,29.3741984 C184.331686,29.2447215 184.266208,28.8653973 184.266208,28.2364406 L184.266208,22.0022638 L186.606273,22.0022638 L189.656182,28.2364406 C190.228246,29.3917396 190.922056,30.3139802 191.739087,31.0038877 C192.42449,31.5728338 193.412765,31.9048264 194.703697,32 L194.703697,31.9962393 L196,29.5942553 L194.703697,29.5942553 Z M155.536128,14.4191895 L155.61167,14 L153.421226,14 L153.36609,14.2783558 C153.12351,15.5203536 152.805495,16.7466935 152.420073,17.9351234 L150.448041,14 L148.581001,15.1876455 L151.378213,20.7459299 C150.550872,22.6986326 149.480231,24.6480236 148.193498,26.5422779 L148,26.8264146 L149.897236,28 L149.941116,27.9357708 C150.981534,26.4163177 151.895755,24.8530865 152.664226,23.280879 L154.117142,26.1585002 L156,25.011263 L153.796005,20.6627602 C154.581041,18.6152968 155.150785,16.570448 155.536128,14.4191895 Z M164,26.599425 L161.891325,21.9188898 C162.740349,19.8161612 163.360433,17.6889946 163.784591,15.4193183 L163.86336,15 L161.601657,15 L161.54675,15.2797943 C161.292743,16.5714207 160.969563,17.7955934 160.564888,19.0001935 L158.766675,15 L156.855684,16.1607553 L159.425489,21.9259116 C158.537133,23.8931247 157.480986,25.7309872 156.201984,27.5398778 L156,27.8251735 L157.960052,29 C158.967217,27.5759544 159.895612,26.0657396 160.633929,24.6321842 L162.06145,27.7891245 L164,26.599425 Z M147.619916,10 L145.016957,10 L145,32 L147.525389,31.9809449 L147.525389,12.4978034 C147.726001,12.4978034 148.081778,12.4970488 149.195344,12.4970488 L164.773916,12.5101205 C165.904439,12.5101205 166.46932,13.0418834 166.46932,14.1047085 L166.482371,28.2131364 C166.482371,28.5417082 166.334829,28.8351346 166.038931,29.094871 C165.743033,29.3539606 165.412569,29.4837614 165.047566,29.4837614 L162.645138,29.4837614 L164.095299,32 L166.397042,32 C167.834912,31.991564 169,30.8332749 169,29.4035523 L169,12.5880118 C169,11.1591516 167.834912,10 166.397042,10 L147.619916,10 Z M102.564648,23.9544303 L112.960669,23.9544303 L112.960669,21.3891588 L102.564648,21.3891588 L102.564648,16 L100.011194,16 L100.011194,30.4756774 L94.3027756,30.4756774 L94.3027756,20.065985 L91.7500561,20.065985 L91.7500561,30.4756774 L89,30.4756774 L89,33 L113,33 L113,30.4756774 L102.564648,30.4756774 L102.564648,23.9544303 Z M132.599387,10 L130.149707,10 L130.149707,29.5575156 L125.811127,29.5575156 L125.811127,10 L123.361474,10 L123.361474,29.5575156 L116,29.5575156 L116,32 L140,32 L140,29.5575156 L132.599387,29.5575156 L132.599387,10 Z M118.068064,23.4677567 C118.953589,25.6808471 120.745178,27.230997 122,28 L122,25.36131 C121.995484,25.339777 121.985618,25.3150675 121.980269,25.2927755 C119.829223,22.845268 119.325923,19.050937 119.099017,17.2012088 C119.080012,17.140714 118.483058,10 118.483058,10 L116,10 L116.612922,17.2139711 C116.612922,17.2139711 116.9023,20.5541136 118.068064,23.4677567 Z M136.901038,17.2017484 C136.674835,19.0506253 136.171572,22.8455256 134.019838,25.2927983 C134.014489,25.3152016 134.005349,25.3399099 134,25.3613294 L134,28 C135.25488,27.230923 137.047189,25.6801759 137.931947,23.4678708 C139.098442,20.5543732 139.386982,17.214482 139.386982,17.214482 L140,10 L137.517712,10 C137.517712,10 136.920043,17.1411442 136.901038,17.2017484 Z M110.131519,13.9999372 C109.344785,13.2015311 108.852588,12.13914 108.852588,12.13914 C108.144466,10.7130132 106.939513,10 105.237756,10 L96.7614089,10 C95.05976,10 93.8548071,10.7130132 93.1466847,12.13914 C93.1466847,12.13914 92.6552422,13.2015311 91.8676463,13.9999372 C91.0809126,14.7984689 90.1904322,15.6181604 89,15.7526756 L89,18 C90.1568378,17.9679212 92.3041579,16.7411198 93.2908416,15.7513201 C94.3401612,14.6988438 95.2718061,13.0691496 95.2718061,13.0691496 C95.3931446,12.8200995 95.6434996,12.5938158 96.0234907,12.392407 C96.1959617,12.3120092 96.5202944,12.2714212 96.9949263,12.2714212 L105.004346,12.2714212 C105.478978,12.2714212 105.803311,12.3120092 105.976509,12.392407 C106.356527,12.5938158 106.606775,12.8200995 106.727359,13.0691496 C106.727359,13.0691496 107.659111,14.6988438 108.708323,15.7513201 C109.695842,16.7411198 111.842435,17.9679212 113,18 L113,15.7526756 C111.80876,15.6181604 110.918252,14.7984689 110.131519,13.9999372 Z" id="qiyewangyin" fill="#082F67"></path>
    </g>
</svg>
