<?xml version="1.0" encoding="UTF-8"?>
<svg width="80px" height="80px" viewBox="0 0 80 80" version="1.1" xmlns="http://www.w3.org/2000/svg" xmlns:xlink="http://www.w3.org/1999/xlink">
    <!-- Generator: Sketch 53.2 (72643) - https://sketchapp.com -->
    <title>icon/失败</title>
    <desc>Created with Sketch.</desc>
    <defs>
        <linearGradient x1="50%" y1="-29.3834339%" x2="50%" y2="100%" id="linearGradient-1">
            <stop stop-color="#FFB962" offset="0%"></stop>
            <stop stop-color="#FF3838" offset="100%"></stop>
        </linearGradient>
    </defs>
    <g id="icon/失败" stroke="none" stroke-width="1" fill="none" fill-rule="evenodd">
        <circle id="bg" fill="url(#linearGradient-1)" cx="40" cy="40" r="40"></circle>
        <path d="M40,37.1193216 L51.5227136,25.596608 C52.3181909,24.8011307 53.6079146,24.8011307 54.403392,25.596608 C55.1988693,26.3920854 55.1988693,27.6818091 54.403392,28.4772864 L42.8806784,40 L54.403392,51.5227136 C55.1988693,52.3181909 55.1988693,53.6079146 54.403392,54.403392 C53.6079146,55.1988693 52.3181909,55.1988693 51.5227136,54.403392 L40,42.8806784 L28.4772864,54.403392 C27.6818091,55.1988693 26.3920854,55.1988693 25.596608,54.403392 C24.8011307,53.6079146 24.8011307,52.3181909 25.596608,51.5227136 L37.1193216,40 L25.596608,28.4772864 C24.8011307,27.6818091 24.8011307,26.3920854 25.596608,25.596608 C26.3920854,24.8011307 27.6818091,24.8011307 28.4772864,25.596608 L40,37.1193216 Z" id="失败" fill="#FFFFFF"></path>
    </g>
</svg>