<?xml version="1.0" encoding="UTF-8"?>
<svg width="20px" height="20px" viewBox="0 0 20 20" version="1.1" xmlns="http://www.w3.org/2000/svg" xmlns:xlink="http://www.w3.org/1999/xlink">
    <!-- Generator: Sketch 52.5 (67469) - http://www.bohemiancoding.com/sketch -->
    <title>icon/检查</title>
    <desc>Created with Sketch.</desc>
    <g id="icon/检查" stroke="none" stroke-width="1" fill="none" fill-rule="evenodd">
        <g id="分组" transform="translate(13.000000, 13.000000)" stroke="#595959">
            <circle id="椭圆形" cx="2.6" cy="2.6" r="2.4"></circle>
            <path d="M6,6 L4.30537109,4.32167969" id="路径-14" stroke-linecap="round"></path>
        </g>
        <path d="M11.7700325,18.5 L17.5,11.815038 L17.5,6.59464052 L12.2619727,1.5 L3.6,1.5 C2.98553161,1.5 2.5,1.95518588 2.5,2.5 L2.5,17.5 C2.5,18.0448141 2.98553161,18.5 3.6,18.5 L11.7700325,18.5 Z" id="路径" stroke="#595959"></path>
        <path d="M12,1 L12,6 C12,6.55228475 12.4477153,7 13,7 L18,7" id="路径-17" stroke="#595959"></path>
        <rect id="矩形" fill="#595959" x="4" y="7" width="6" height="1" rx="0.5"></rect>
        <rect id="矩形" fill="#595959" x="4" y="10" width="8" height="1" rx="0.5"></rect>
        <rect id="矩形" fill="#595959" x="4" y="13" width="9" height="1" rx="0.5"></rect>
    </g>
</svg>