<?xml version="1.0" encoding="UTF-8"?>
<svg width="256px" height="64px" viewBox="0 0 256 64" version="1.1" xmlns="http://www.w3.org/2000/svg" xmlns:xlink="http://www.w3.org/1999/xlink">
    <!-- Generator: Sketch 53.2 (72643) - https://sketchapp.com -->
    <title>Logo</title>
    <desc>Created with Sketch.</desc>
    <g id="Logo" stroke="none" stroke-width="1" fill="none" fill-rule="evenodd">
        <g>
            <rect id="background" x="0" y="0" width="256" height="64"></rect>
            <g id="Icon/SUNMI" transform="translate(24.000000, 22.000000)" fill="#FFFFFF">
                <path d="M127.528,8.48 L127.32,9.312 C127.72,11.184 128.232,12.8 128.872,14.144 C129.496,12.528 129.832,10.64 129.896,8.48 L127.528,8.48 Z M128.344,15.296 C127.72,14.064 127.192,12.656 126.76,11.056 C126.472,11.792 126.152,12.448 125.816,13.024 L125.096,12.144 C126.04,10.352 126.68,7.936 127,4.896 L128.12,5.088 C128.024,5.904 127.896,6.672 127.768,7.376 L131.992,7.376 L131.992,8.48 L130.952,8.48 C130.872,11.152 130.376,13.44 129.48,15.328 C130.312,16.768 131.288,17.872 132.44,18.656 L131.816,19.6 C130.696,18.8 129.736,17.712 128.936,16.368 C128.168,17.648 127.176,18.72 125.976,19.584 L125.384,18.624 C126.632,17.76 127.608,16.656 128.344,15.296 Z M120.76,12.368 L121.832,12.496 C121.72,12.8 121.608,13.088 121.512,13.376 L124.856,13.376 L124.856,14.32 C124.504,15.376 123.912,16.288 123.08,17.056 C123.848,17.408 124.584,17.76 125.288,18.144 L124.664,19.04 C123.96,18.624 123.144,18.192 122.2,17.776 C121.144,18.512 119.816,19.104 118.216,19.552 L117.672,18.592 C118.984,18.24 120.12,17.808 121.048,17.28 C120.344,16.976 119.608,16.672 118.824,16.384 C119.24,15.68 119.608,15.024 119.928,14.384 L118.04,14.384 L118.04,13.376 L120.376,13.376 C120.52,13.024 120.648,12.688 120.76,12.368 Z M122.024,16.608 C122.824,15.968 123.432,15.216 123.816,14.384 L121.064,14.384 C120.808,14.928 120.52,15.44 120.2,15.92 C120.84,16.144 121.448,16.368 122.024,16.608 Z M119.304,5.232 C119.688,5.856 120.008,6.528 120.296,7.232 L119.464,7.616 C119.128,6.832 118.776,6.144 118.392,5.536 L119.304,5.232 Z M124.168,5.184 L125,5.568 C124.68,6.272 124.28,6.96 123.768,7.632 L122.952,7.216 C123.464,6.528 123.88,5.856 124.168,5.184 Z M118.072,8 L121.192,8 L121.192,4.944 L122.264,4.944 L122.264,8 L125.176,8 L125.176,9.008 L122.264,9.008 L122.264,9.184 C123.128,9.616 124.024,10.112 124.92,10.656 L124.328,11.552 C123.528,10.912 122.84,10.4 122.264,10.016 L122.264,12.096 L121.192,12.096 L121.192,9.056 C120.664,10.32 119.704,11.408 118.328,12.336 L117.768,11.408 C119,10.688 119.864,9.888 120.344,9.008 L118.072,9.008 L118.072,8 Z M147.784,6.576 L147.784,10.144 L146.632,10.144 L146.632,7.68 L135.368,7.68 L135.368,10.144 L134.216,10.144 L134.216,6.576 L140.504,6.576 C140.28,6 140.04,5.488 139.784,5.024 L141.096,4.8 C141.32,5.328 141.544,5.92 141.752,6.576 L147.784,6.576 Z M136.68,9.408 L145.272,9.408 L145.272,10.48 C144.232,11.216 143.064,11.92 141.784,12.624 L141.784,13.696 L148.088,13.696 L148.088,14.816 L141.784,14.816 L141.784,18.208 C141.784,19.088 141.32,19.536 140.392,19.536 L138.424,19.536 L138.152,18.48 C138.712,18.496 139.32,18.512 139.992,18.512 C140.408,18.512 140.616,18.272 140.616,17.808 L140.616,14.816 L133.928,14.816 L133.928,13.696 L140.616,13.696 L140.616,12.128 C141.912,11.456 142.888,10.896 143.544,10.48 L136.68,10.48 L136.68,9.408 Z M157.368,8.288 L158.536,8.288 L158.536,10.192 L163.816,10.192 L163.816,11.28 L158.536,11.28 L158.536,13.616 L162.744,13.616 L162.744,19.584 L161.608,19.584 L161.608,18.784 L154.856,18.784 L154.856,19.584 L153.72,19.584 L153.72,13.616 L157.368,13.616 L157.368,8.288 Z M154.856,17.696 L161.608,17.696 L161.608,14.688 L154.856,14.688 L154.856,17.696 Z M157.464,4.848 C157.72,5.328 157.976,5.888 158.232,6.496 L164.12,6.496 L164.12,7.616 L152.328,7.616 L152.328,11.12 C152.28,14.608 151.704,17.408 150.584,19.52 L149.72,18.752 C150.664,16.928 151.16,14.384 151.192,11.12 L151.192,6.496 L157.064,6.496 C156.824,5.968 156.552,5.488 156.264,5.04 L157.464,4.848 Z M167.656,4.944 L168.76,5.168 C168.632,5.712 168.488,6.24 168.344,6.736 L171.096,6.736 L171.096,7.824 L167.976,7.824 C167.576,8.912 167.112,9.904 166.584,10.8 L165.64,10.208 C166.568,8.624 167.24,6.864 167.656,4.944 Z M167.208,9.84 L170.632,9.84 L170.632,10.896 L169.304,10.896 L169.304,12.976 L171.272,12.976 L171.272,14.032 L169.304,14.032 L169.304,17.76 C169.944,17.52 170.584,17.216 171.224,16.832 L171.416,17.856 C170.488,18.384 169.416,18.816 168.2,19.168 L167.72,18.176 C168.024,18.064 168.184,17.888 168.184,17.664 L168.184,14.032 L166.088,14.032 L166.088,12.976 L168.184,12.976 L168.184,10.896 L167.208,10.896 L167.208,9.84 Z M171.576,6.848 L175.384,6.848 L175.384,4.976 L176.456,4.976 L176.456,6.848 L178.744,6.848 C178.408,6.368 177.992,5.84 177.512,5.296 L178.28,4.832 C178.856,5.456 179.304,6 179.624,6.48 L179.112,6.848 L180.376,6.848 L180.376,7.904 L176.456,7.904 L176.456,9.488 L179.704,9.488 L179.704,18.144 C179.704,19.04 179.272,19.504 178.408,19.504 L177.48,19.504 L177.208,18.464 L178.072,18.512 C178.44,18.512 178.632,18.304 178.632,17.904 L178.632,16.112 L176.456,16.112 L176.456,19.52 L175.384,19.52 L175.384,16.112 L173.288,16.112 L173.288,19.568 L172.216,19.568 L172.216,9.488 L175.384,9.488 L175.384,7.904 L171.576,7.904 L171.576,6.848 Z M175.384,10.528 L173.288,10.528 L173.288,12.336 L175.384,12.336 L175.384,10.528 Z M173.288,13.36 L173.288,15.104 L175.384,15.104 L175.384,13.36 L173.288,13.36 Z M178.632,15.104 L178.632,13.36 L176.456,13.36 L176.456,15.104 L178.632,15.104 Z M178.632,12.336 L178.632,10.528 L176.456,10.528 L176.456,12.336 L178.632,12.336 Z" id="数字店铺" fill-rule="nonzero"></path>
                <path d="M4.99998839,11.7963695 C2.23884171,11.7963695 0,9.57203928 0,6.82955675 L0,4.96681271 C0,2.22433018 2.23884171,0 4.99998839,0 L19.4642405,0 L19.4642405,3.72518524 L8.43458549,3.72124837 L7.18763568,3.72548808 C5.97938641,3.72548808 4.99998839,4.69819721 4.99998839,5.89803331 C4.99998839,7.09817225 5.97938641,8.07118422 7.18763568,8.07118422 L14.9999652,8.07118422 C17.7608071,8.07118422 19.9999536,10.2955144 19.9999536,13.0382998 L19.9999536,14.900741 C19.9999536,17.6432235 17.7608071,19.8672508 14.9999652,19.8672508 L0.535713042,19.8672508 L0.535713042,16.1426713 L11.5653681,16.1460025 L12.8123179,16.1423684 C14.0205672,16.1423684 14.9999652,15.1693565 14.9999652,13.9695204 C14.9999652,12.7693814 14.0205672,11.7963695 12.8123179,11.7963695 L4.99998839,11.7963695 Z M100.000012,19.8677051 L100.000012,0.000151417984 L105,0.000151417984 L105,19.8677051 L100.000012,19.8677051 Z M36.2498549,16.1422473 C37.6302759,16.1422473 38.7498491,15.0302336 38.7498491,13.6589924 L38.7501538,0.000181701581 L43.7498375,0.000181701581 L43.7498375,12.6469146 L43.7498375,14.9006198 C43.7498375,17.6431024 41.510691,19.8674325 38.7498491,19.8674325 L36.1669687,19.8674325 L31.3327527,19.8674325 L28.7498723,19.8674325 C25.9890303,19.8674325 23.7495792,17.6431024 23.7495792,14.9006198 L23.7498839,12.6469146 L23.7498839,0.000181701581 L28.7498723,0.000181701581 L28.7498723,13.6589924 C28.7498723,15.0302336 29.8694455,16.1422473 31.2498665,16.1422473 L36.2498549,16.1422473 Z M54.9999028,3.72539723 C53.6194818,3.72539723 52.4999086,4.8374109 52.4999086,6.20865216 L52.4999086,19.8674628 L47.4999202,19.8674628 L47.5002249,7.22072997 L47.4999202,4.9670247 C47.4999202,2.22423933 49.7390666,0.000211985178 52.4999086,0.000211985178 L55.082789,0.000211985178 L59.917005,0.000211985178 L62.4998854,0.000211985178 C65.2607273,0.000211985178 67.5001785,2.22423933 67.5001785,4.9670247 L67.4998738,7.22072997 L67.4998738,19.8674628 L62.4998854,19.8674628 L62.4998854,6.20865216 C62.4998854,4.8374109 61.3803121,3.72539723 59.9998912,3.72539723 L54.9999028,3.72539723 Z M81.2500551,19.8674023 L81.2500551,7.4505219 L86.2500435,7.4505219 L86.2500435,19.8674023 L81.2500551,19.8674023 Z M78.7500609,3.72533666 C77.3693352,3.72533666 76.2500668,4.83735033 76.2500668,6.2085916 L76.2500668,19.8674023 L71.2500784,19.8674023 L71.2500784,7.2206694 L71.2500784,4.96696413 C71.2500784,2.2244816 73.4892248,0.000151417984 76.2500668,0.000151417984 L78.8329472,0.000151417984 L88.6674563,0.000151417984 L91.2500319,0.000151417984 C94.0111786,0.000151417984 96.2500203,2.2244816 96.2500203,4.96696413 L96.2497156,7.2206694 L96.2497156,19.8674023 L91.2500319,19.8674023 L91.2500319,6.2085916 C91.2500319,4.83735033 90.1304587,3.72533666 88.7500377,3.72533666 L78.7500609,3.72533666 Z" id="Combined-Shape"></path>
            </g>
        </g>
    </g>
</svg>