<?xml version="1.0" encoding="UTF-8"?>
<svg width="256px" height="64px" viewBox="0 0 256 64" version="1.1" xmlns="http://www.w3.org/2000/svg" xmlns:xlink="http://www.w3.org/1999/xlink">
    <!-- Generator: Sketch 53.2 (72643) - https://sketchapp.com -->
    <title>Logo</title>
    <desc>Created with Sketch.</desc>
    <g id="Logo" stroke="none" stroke-width="1" fill="none" fill-rule="evenodd">
        <g>
            <rect id="background" x="0" y="0" width="256" height="64"></rect>
            <g id="Icon/SUNMI" transform="translate(24.000000, 22.000000)" fill="#FFFFFF">
                <path d="M4.99998839,11.7963695 C2.23884171,11.7963695 0,9.57203928 0,6.82955675 L0,4.96681271 C0,2.22433018 2.23884171,0 4.99998839,0 L19.4642405,0 L19.4642405,3.72518524 L8.43458549,3.72124837 L7.18763568,3.72548808 C5.97938641,3.72548808 4.99998839,4.69819721 4.99998839,5.89803331 C4.99998839,7.09817225 5.97938641,8.07118422 7.18763568,8.07118422 L14.9999652,8.07118422 C17.7608071,8.07118422 19.9999536,10.2955144 19.9999536,13.0382998 L19.9999536,14.900741 C19.9999536,17.6432235 17.7608071,19.8672508 14.9999652,19.8672508 L0.535713042,19.8672508 L0.535713042,16.1426713 L11.5653681,16.1460025 L12.8123179,16.1423684 C14.0205672,16.1423684 14.9999652,15.1693565 14.9999652,13.9695204 C14.9999652,12.7693814 14.0205672,11.7963695 12.8123179,11.7963695 L4.99998839,11.7963695 Z M100.000012,19.8677051 L100.000012,0.000151417984 L105,0.000151417984 L105,19.8677051 L100.000012,19.8677051 Z M36.2498549,16.1422473 C37.6302759,16.1422473 38.7498491,15.0302336 38.7498491,13.6589924 L38.7501538,0.000181701581 L43.7498375,0.000181701581 L43.7498375,12.6469146 L43.7498375,14.9006198 C43.7498375,17.6431024 41.510691,19.8674325 38.7498491,19.8674325 L36.1669687,19.8674325 L31.3327527,19.8674325 L28.7498723,19.8674325 C25.9890303,19.8674325 23.7495792,17.6431024 23.7495792,14.9006198 L23.7498839,12.6469146 L23.7498839,0.000181701581 L28.7498723,0.000181701581 L28.7498723,13.6589924 C28.7498723,15.0302336 29.8694455,16.1422473 31.2498665,16.1422473 L36.2498549,16.1422473 Z M54.9999028,3.72539723 C53.6194818,3.72539723 52.4999086,4.8374109 52.4999086,6.20865216 L52.4999086,19.8674628 L47.4999202,19.8674628 L47.5002249,7.22072997 L47.4999202,4.9670247 C47.4999202,2.22423933 49.7390666,0.000211985178 52.4999086,0.000211985178 L55.082789,0.000211985178 L59.917005,0.000211985178 L62.4998854,0.000211985178 C65.2607273,0.000211985178 67.5001785,2.22423933 67.5001785,4.9670247 L67.4998738,7.22072997 L67.4998738,19.8674628 L62.4998854,19.8674628 L62.4998854,6.20865216 C62.4998854,4.8374109 61.3803121,3.72539723 59.9998912,3.72539723 L54.9999028,3.72539723 Z M81.2500551,19.8674023 L81.2500551,7.4505219 L86.2500435,7.4505219 L86.2500435,19.8674023 L81.2500551,19.8674023 Z M78.7500609,3.72533666 C77.3693352,3.72533666 76.2500668,4.83735033 76.2500668,6.2085916 L76.2500668,19.8674023 L71.2500784,19.8674023 L71.2500784,7.2206694 L71.2500784,4.96696413 C71.2500784,2.2244816 73.4892248,0.000151417984 76.2500668,0.000151417984 L78.8329472,0.000151417984 L88.6674563,0.000151417984 L91.2500319,0.000151417984 C94.0111786,0.000151417984 96.2500203,2.2244816 96.2500203,4.96696413 L96.2497156,7.2206694 L96.2497156,19.8674023 L91.2500319,19.8674023 L91.2500319,6.2085916 C91.2500319,4.83735033 90.1304587,3.72533666 88.7500377,3.72533666 L78.7500609,3.72533666 Z" id="Combined-Shape"></path>
            </g>
        </g>
    </g>
</svg>